<?xml version="1.0" encoding="utf-8" ?>
<svg baseProfile="full" height="200mm" version="1.1" viewBox="0,0,200,200" width="200mm" xmlns="http://www.w3.org/2000/svg" xmlns:ev="http://www.w3.org/2001/xml-events" xmlns:xlink="http://www.w3.org/1999/xlink"><defs /><rect fill="#1a1a1a" height="200" width="200" x="0" y="0" /><text alignment-baseline="middle" fill="#e1ed5e" style="dominant-baseline: central; font-size:9.0px; font-family:Arial;" text-anchor="middle" x="100.0" y="100.0">2023</text><line stroke="#e1ed5e" stroke-width="0.3" x1="100.0" x2="100.0" y1="15.0" y2="10.0" /><path d="M 100.0 14.0 a86.0,86.0 0 0,1 42.46469731375804,11.215312516191453" fill="none" id="id85" stroke="none" /><text fill="#e1ed5e" style="font-size:6.75px; font-family:Arial;" text-anchor="middle"><textPath startOffset="22.20632615414155" xlink:href="#id85">January</textPath></text><line stroke="#e1ed5e" stroke-width="0.3" x1="143.23703022742887" x2="145.7803849466894" y1="26.81831364943548" y2="22.513508569990506" /><path d="M 143.74570117128098 25.957352633546492 a86.0,86.0 0 0,1 28.547481713284135,27.462654790039103" fill="none" id="id86" stroke="none" /><text fill="#e1ed5e" style="font-size:6.75px; font-family:Arial;" text-anchor="middle"><textPath startOffset="19.985693538727396" xlink:href="#id86">February</textPath></text><line stroke="#e1ed5e" stroke-width="0.3" x1="172.23445277983987" x2="176.4835382374775" y1="55.19839476539836" y2="52.563006222186495" /><path d="M 173.08426987136738 54.67131705675599 a86.0,86.0 0 0,1 12.851231095245387,41.99856678651699" fill="none" id="id87" stroke="none" /><text fill="#e1ed5e" style="font-size:6.75px; font-family:Arial;" text-anchor="middle"><textPath startOffset="22.20632615414155" xlink:href="#id87">March</textPath></text><line stroke="#e1ed5e" stroke-width="0.3" x1="184.98032266829074" x2="189.97916517819016" y1="98.17113171792111" y2="98.06355123074" /><path d="M 185.9800911702706 98.14961562048488 a86.0,86.0 0 0,1 -9.607161424134198,41.387399972396054" fill="none" id="id88" stroke="none" /><text fill="#e1ed5e" style="font-size:6.75px; font-family:Arial;" text-anchor="middle"><textPath startOffset="21.466115282336823" xlink:href="#id88">April</textPath></text><path d="M 120.99513854157772 99.54816195383933 l 37.43243171129503 -0.8055863396176082 a58.4410992516425,58.4410992516425 0 0,0 0.01298781877334736,1.0059208770742185 l -37.4407525371861 0.16112920448292686" fill="#43ff2d" stroke="none" /><path d="M 120.99980553446 99.90962569577887 l 19.23015563603074 -0.08275847758773121 a40.230333713994085,40.230333713994085 0 0,0 -0.002980306628717091,0.6925183012529341 l -19.22873103211252 -0.24826930186888763" fill="#ffee16" stroke="none" /><path d="M 120.9904718944345 100.63252640178507 l 22.33398826223625 0.673011893399497 a43.34412622382813,43.34412622382813 0 0,0 -0.028891681931515516,0.7455659333496955 l -22.31909444745353 -1.0573550737631987" fill="#eaff1a" stroke="none" /><path d="M 120.8583938346157 102.4346265915055 l 42.73719254752869 4.9883565459306345 a64.02733233508523,64.02733233508523 0 0,0 -0.13719682485853882,1.0935936832826507 l -42.64499421342331 -5.72326798350068" fill="#34ff5b" stroke="none" /><path d="M 119.79798401119884 107.00284435728193 l 19.115156373352534 6.76131796409041 a41.275715123991354,41.275715123991354 0 0,0 -0.24269282987964627,0.6677864354058769 l -18.995939282467663 -7.089352196502418" fill="#fffb17" stroke="none" /><path d="M 119.67450827220406 107.3425965602758 l 51.92835830273568 19.379848267573575 a76.42682486749058,76.42682486749058 0 0,0 -0.47059169751770297,1.2285664255731168 l -51.58707232562447 -20.270838259979836" fill="#43ffe3" stroke="none" /><line stroke="#e1ed5e" stroke-width="0.3" x1="174.80103733775053" x2="179.2010983576182" y1="140.37084112569926" y2="142.7455964860345" /><path d="M 175.68104954172406 140.8457921977663 a86.0,86.0 0 0,1 -30.038265399797805,32.042727171017184" fill="none" id="id89" stroke="none" /><text fill="#e1ed5e" style="font-size:6.75px; font-family:Arial;" text-anchor="middle"><textPath startOffset="22.206326154141568" xlink:href="#id89">May</textPath></text><path d="M 118.12598468904814 110.60418214915192 l 28.080514763100787 16.427846459000158 a53.53289794409968,53.53289794409968 0 0,0 -0.4721579275496341,0.7913638450464374 l -27.793575959852927 -16.9087723979327" fill="#76ff27" stroke="none" /><path d="M 117.35343817320211 111.8261652097733 l 31.639035993407948 21.561633089736215 a59.28749952776456,59.28749952776456 0 0,0 -0.5819748271085079,0.8383781441834589 l -31.263200259137307 -22.103052496106695" fill="#3bff2e" stroke="none" /><path d="M 115.80600337817218 113.82643327865902 l 47.41801013451653 41.47929983597707 a84.0,84.0 0 0,0 -0.9613646014066468,1.080103321036534 l -46.696986683461546 -42.289377326754476" fill="#4dd2ff" stroke="none" /><path d="M 115.32070863581623 114.36230785411682 l 7.409792633218372 6.946266355112328 a31.156556657817784,31.156556657817784 0 0,0 -0.3701598460816973,0.3881111187370971 l -7.289126235757711 -7.072784590431931" fill="#ff770a" stroke="none" /><path d="M 114.29624159901734 115.38237550388516 l 29.033915692889693 31.23972062467602 a63.6484279331564,63.6484279331564 0 0,0 -0.8089425757659658,0.7389498631188626 l -28.491873567656864 -31.73486325438147" fill="#33ff56" stroke="none" /><path d="M 113.20401910651253 116.32954008644616 l 19.116052191618596 23.64100945625488 a51.40264428472331,51.40264428472331 0 0,0 -0.6928158723479146,0.5504148300044053 l -18.70627882655333 -23.966558200264412" fill="#8dff24" stroke="none" /><path d="M 112.04921762599082 117.19931262002967 l 20.214469244202586 28.854568551327453 a56.23082305465014,56.23082305465014 0 0,0 -0.7975220723245903,0.5485429535393663 l -19.714790287255113 -29.198252294231914" fill="#5aff2a" stroke="none" /><line stroke="#e1ed5e" stroke-width="0.3" x1="143.8653032363475" x2="146.44561519142675" y1="172.8068346515853" y2="177.08958963109032" /><path d="M 144.38136562736335 173.6633856474863 a86.0,86.0 0 0,1 -40.68145358897372,12.25698825130547" fill="none" id="id90" stroke="none" /><text fill="#e1ed5e" style="font-size:6.75px; font-family:Arial;" text-anchor="middle"><textPath startOffset="21.466115282336833" xlink:href="#id90">June</textPath></text><path d="M 105.53697534728816 120.25689768951611 l 7.013678011871737 25.659380618929205 a47.60066715331202,47.60066715331202 0 0,0 -0.7922327666014944,0.2092358741510211 l -6.570954802458745 -25.77630784238381" fill="#b8ff1f" stroke="none" /><line stroke="#e1ed5e" stroke-width="0.3" x1="102.19456741930631" x2="102.32365962044197" y1="184.97166512339345" y2="189.96999836594603" /><path d="M 102.22038585953345 185.97133177190398 a86.0,86.0 0 0,1 -42.740103519485714,-10.115201625700543" fill="none" id="id91" stroke="none" /><text fill="#e1ed5e" style="font-size:6.75px; font-family:Arial;" text-anchor="middle"><textPath startOffset="22.20632615414155" xlink:href="#id91">July</textPath></text><path d="M 98.01472825383883 120.90594882070398 l -1.8111875319413542 19.072751083412147 a40.1585551168573,40.1585551168573 0 0,0 -0.6876051136875972,-0.0712730814814006 l 2.1392252422345446 -19.038748633474984" fill="#ffed16" stroke="none" /><path d="M 95.51606077576429 120.51570834832081 l -2.437097715494484 11.150638634261608 a32.413859436087165,32.413859436087165 0 0,0 -0.5440586824587026,-0.12382598482460158 l 2.6286765473460494 -11.10703591585932" fill="#ff880c" stroke="none" /><line stroke="#e1ed5e" stroke-width="0.3" x1="58.666819895761336" x2="56.23545636021788" y1="174.27360380694188" y2="178.64263932499728" /><path d="M 58.180547188652646 175.14741091055294 a86.0,86.0 0 0,1 -31.652253787137756,-30.449443065178592" fill="none" id="id92" stroke="none" /><text fill="#e1ed5e" style="font-size:6.75px; font-family:Arial;" text-anchor="middle"><textPath startOffset="22.20632615414155" xlink:href="#id92">August</textPath></text><path d="M 84.67929136418377 114.36230785411682 l -1.5965238001684623 1.4966518102719815 a23.188345239146408,23.188345239146408 0 0,0 -0.2704794504268595,-0.29355202309810946 l 1.6220496585910509 -1.468948532372528" fill="#ff0500" stroke="none" /><path d="M 84.43433777217949 114.09645910891817 l -2.3325358102943694 2.112373710071556 a24.146878770672153,24.146878770672153 0 0,0 -0.2763566010069269,-0.3104895708674976 l 2.3685512609496344 -2.0719099694631944" fill="#ff1402" stroke="none" /><path d="M 83.95833913139862 113.55231037782056 l -2.531808686577415 2.138921737518995 a24.314368933094222,24.314368933094222 0 0,0 -0.2673469069864659,-0.3220365718630023 l 2.5682515934574175 -2.095023908542232" fill="#ff1602" stroke="none" /><path d="M 83.72743513129214 113.27417163493432 l -4.649323709324211 3.7926363423272513 a27.00002511488291,27.00002511488291 0 0,0 -0.2906772405973296,-0.36266455131411535 l 4.713918861976401 -3.7120439574348763" fill="#ff3d05" stroke="none" /><path d="M 83.06392112726016 112.41649034213515 l -22.08991639233829 16.194966710123122 a48.39053400287209,48.39053400287209 0 0,0 -0.4867170780543747,-0.6760074519388898 l 22.36541326276827 -15.812325652733094" fill="#afff20" stroke="none" /><line stroke="#e1ed5e" stroke-width="0.3" x1="26.63291911575756" x2="22.317208475507996" y1="142.92168965132927" y2="145.44649492493687" /><path d="M 25.769776987707644 143.4266507060508 a86.0,86.0 0 0,1 -11.730757126820373,-40.83630448921669" fill="none" id="id93" stroke="none" /><text fill="#e1ed5e" style="font-size:6.75px; font-family:Arial;" text-anchor="middle"><textPath startOffset="21.46611528233685" xlink:href="#id93">September</textPath></text><path d="M 79.86692584326677 105.97154293290107 l -5.734178897655118 1.7007782917657996 a26.981091407766232,26.981091407766232 0 0,0 -0.1282338851116258,-0.44639897677883594 l 5.762605419652848 -1.6018218394823678" fill="#ff3c05" stroke="none" /><path d="M 79.76711848015287 105.62410040840567 l -12.62651648467798 3.5097717766280354 a34.10524385358241,34.10524385358241 0 0,0 -0.152356120606544,-0.5669738026449924 l 12.685060681626299 -3.291907040807504" fill="#ff9f0e" stroke="none" /><path d="M 79.23777060512086 103.15116336523772 l -23.352034475188095 3.54422803748284 a44.61946372194028,44.61946372194028 0 0,0 -0.10871415259350035,-0.760346530033456 l 23.409582678798195 -3.1417360354689836" fill="#dbff1b" stroke="none" /><path d="M 79.0235259727143 100.99374915477108 l -6.644148170465359 0.31476293966208196 a27.65159985411652,27.65159985411652 0 0,0 -0.018431591486175077,-0.4756374773224445 l 6.648581894802735 -0.20034821532564073" fill="#ff4606" stroke="none" /><line stroke="#e1ed5e" stroke-width="0.3" x1="15.007084014347285" x2="10.007500721073583" y1="101.09737516637583" y2="101.16192664675087" /><path d="M 14.007167355692545 101.11028546245083 a86.0,86.0 0 0,1 10.666146001902534,-42.60595125391555" fill="none" id="id94" stroke="none" /><text fill="#e1ed5e" style="font-size:6.75px; font-family:Arial;" text-anchor="middle"><textPath startOffset="22.20632615414155" xlink:href="#id94">October</textPath></text><path d="M 79.91906864156998 93.8553929516997 l -1.740715877883629 -0.5326453669611191 a22.8203853587802,22.8203853587802 0 0,0 0.11817103647922461,-0.3746344787868839 l 1.7312893576362005 0.5625300121744174" fill="#ff0000" stroke="none" /><path d="M 80.52162464483688 92.15188598940014 l -5.484786180174487 -2.209898232316478 a26.91325034472823,26.91325034472823 0 0,0 0.17683070871309545,-0.42820958723475655 l 5.445933784575192 2.3039823900045455" fill="#ff3c05" stroke="none" /><path d="M 81.10775173730289 90.83032412892265 l -2.925921287981706 -1.4201459488573909 a24.252357590966987,24.252357590966987 0 0,0 0.18551897186962563,-0.37399492676805157 l 2.9010423031586674 1.470300464124404" fill="#ff1502" stroke="none" /><path d="M 81.43458229118936 90.18545643968196 l -7.960072213327069 -4.208064515774404 a30.003918958448114,30.003918958448114 0 0,0 0.24530618461289933,-0.4545151045349378 l 7.886457929495698 4.3444606036418145" fill="#ff6709" stroke="none" /><line stroke="#e1ed5e" stroke-width="0.3" x1="26.266209847984243" x2="21.928928074336255" y1="57.711370442889674" y2="55.22380399835377" /><path d="M 25.398753493254645 57.213857153982495 a86.0,86.0 0 0,1 29.58750427330803,-30.492523968695096" fill="none" id="id95" stroke="none" /><text fill="#e1ed5e" style="font-size:6.75px; font-family:Arial;" text-anchor="middle"><textPath startOffset="21.46611528233685" xlink:href="#id95">November</textPath></text><path d="M 82.15384107792192 88.93136811851018 l -11.927857709580998 -7.397954187150588 a35.0357940885149,35.0357940885149 0 0,0 0.3222832648338054,-0.5097747284736243 l 11.79874684850123 7.6021765633384275" fill="#ffab0f" stroke="none" /><line stroke="#e1ed5e" stroke-width="0.3" x1="56.762969772571076" x2="54.21961505331055" y1="26.818313649435495" y2="22.513508569990535" /><path d="M 56.25429882871897 25.957352633546506 a86.0,86.0 0 0,1 42.265352541879196,-11.944610805530505" fill="none" id="id96" stroke="none" /><text fill="#e1ed5e" style="font-size:6.75px; font-family:Arial;" text-anchor="middle"><textPath startOffset="22.20632615414155" xlink:href="#id96">December</textPath></text><path d="M 89.63071344664047 81.73862282372117 l -6.465536608394593 -11.38647312381189 a34.09408010643669,34.09408010643669 0 0,0 0.5128332671843495,-0.28539115795529496 l 6.268579252138197 11.49607967932737" fill="#ff9f0e" stroke="none" /></svg>