<?xml version="1.0" encoding="utf-8" ?>
<svg baseProfile="full" height="200mm" version="1.1" viewBox="0,0,200,200" width="200mm" xmlns="http://www.w3.org/2000/svg" xmlns:ev="http://www.w3.org/2001/xml-events" xmlns:xlink="http://www.w3.org/1999/xlink"><defs /><rect fill="#1a1a1a" height="200" width="200" x="0" y="0" /><text alignment-baseline="middle" fill="#e1ed5e" style="dominant-baseline: central; font-size:9.0px; font-family:Arial;" text-anchor="middle" x="100.0" y="100.0">2024</text><line stroke="#e1ed5e" stroke-width="0.3" x1="100.0" x2="100.0" y1="15.0" y2="10.0" /><path d="M 100.0 14.0 a86.0,86.0 0 0,1 42.35913384403234,11.155469271406648" fill="none" id="id13" stroke="none" /><text fill="#e1ed5e" style="font-size:6.75px; font-family:Arial;" text-anchor="middle"><textPath startOffset="22.145653131862478" xlink:href="#id13">January</textPath></text><path d="M 104.29559338865022 79.4440306129975 l 1.4153175890754883 -6.772807014460873 a27.919106787228888,27.919106787228888 0 0,0 0.4682932716612302,0.10206233896497893 l -1.5313732773558526 6.747513217362175" fill="#ff4706" stroke="none" /><path d="M 106.04205211174951 79.88797359093562 l 0.6173385814179236 -2.0549193590481183 a23.145646871294954,23.145646871294954 0 0,0 0.37954382420837446,0.11758364693581705 l -0.6525230384979283 2.0440191243056542" fill="#ff0200" stroke="none" /><line stroke="#e1ed5e" stroke-width="0.3" x1="143.13028292997686" x2="145.6673583964461" y1="26.7553504044142" y2="22.446841604673864" /><path d="M 143.63769802327073 25.89364864446614 a86.0,86.0 0 0,1 29.32050498858742,28.57503671076993" fill="none" id="id14" stroke="none" /><text fill="#e1ed5e" style="font-size:6.75px; font-family:Arial;" text-anchor="middle"><textPath startOffset="20.669276256404974" xlink:href="#id14">February</textPath></text><line stroke="#e1ed5e" stroke-width="0.3" x1="172.87174338648825" x2="177.1583165268699" y1="56.24261187166439" y2="53.66864786411523" /><path d="M 173.72905801456457 55.72781907015455 a86.0,86.0 0 0,1 12.242430191666344,42.057860355516425" fill="none" id="id15" stroke="none" /><text fill="#e1ed5e" style="font-size:6.75px; font-family:Arial;" text-anchor="middle"><textPath startOffset="22.145653131862474" xlink:href="#id15">March</textPath></text><path d="M 119.71291397450082 92.76114493625339 l 9.653947519218903 -3.545063250163723 a31.28426838192655,31.28426838192655 0 0,0 0.18079302338715472,0.5057102633743715 l -9.71338071265 3.3788180304084343" fill="#ff760a" stroke="none" /><path d="M 120.05942366710727 93.78553927170692 l 5.143175736373776 -1.5933689901976054 a26.384336671693855,26.384336671693855 0 0,0 0.1303181187548254,0.43378663366372266 l -5.169770175132228 1.5048447529431592" fill="#ff3104" stroke="none" /><line stroke="#e1ed5e" stroke-width="0.3" x1="184.99686870605535" x2="189.99668451229388" y1="99.2704041080226" y2="99.22748670261217" /><path d="M 185.99683186730306 99.26182062694052 a86.0,86.0 0 0,1 -10.086455211305974,41.156179273409016" fill="none" id="id16" stroke="none" /><text fill="#e1ed5e" style="font-size:6.75px; font-family:Arial;" text-anchor="middle"><textPath startOffset="21.40746469413373" xlink:href="#id16">April</textPath></text><path d="M 120.98066250479742 100.90099992219065 l 13.26858452755294 0.5698101108185484 a34.28081394068934,34.28081394068934 0 0,0 -0.03029511518448379,0.5877171411739217 l -13.256847822911885 -0.7974990453692007" fill="#ff9f0e" stroke="none" /><path d="M 120.9064616781168 101.97986365728391 l 17.496689540122414 1.6569546906891186 a38.57497208277799,38.57497208277799 0 0,0 -0.06808961548548109,0.6587052639022075 l -17.465667532155265 -1.9570644768742576" fill="#ffd714" stroke="none" /><path d="M 120.51834098615036 104.47187691870673 l 3.6159425632009117 0.7880778518429916 a24.700825221613883,24.700825221613883 0 0,0 -0.09385036015463301,0.4135220033948864 l -3.601881341488615 -0.8500341891768949" fill="#ff1902" stroke="none" /><path d="M 120.26092885502905 105.52220625578681 l 13.179472334938595 3.5921237913977495 a34.66022856178247,34.66022856178247 0 0,0 -0.16138711494337196,0.5727059365071019 l -13.115866727920643 -3.81783765180786" fill="#ffa40f" stroke="none" /><line stroke="#e1ed5e" stroke-width="0.3" x1="174.33088141563837" x2="178.70328620479359" y1="141.23008692659167" y2="143.65538615756765" /><path d="M 175.20536237346943 141.71514677278685 a86.0,86.0 0 0,1 -30.301960400862466,31.631185727798858" fill="none" id="id17" stroke="none" /><text fill="#e1ed5e" style="font-size:6.75px; font-family:Arial;" text-anchor="middle"><textPath startOffset="22.145653131862474" xlink:href="#id17">May</textPath></text><path d="M 118.36410011445183 110.18625677009912 l 10.91706391335179 6.055511323937468 a33.48404989907293,33.48404989907293 0 0,0 -0.283126193620697,0.5002568554998706 l -10.811504354709715 -6.242024949536462" fill="#ff940d" stroke="none" /><path d="M 118.18653347947321 110.5 l 5.499631567542263 3.1752137659642874 a27.350427531928577,27.350427531928577 0 0,0 -0.23824343975144824,0.4045894456888358 l -5.444314417661049 -3.2691543799466727" fill="#ff3f05" stroke="none" /><path d="M 117.62189284568427 111.42229804090321 l 3.0196677805301255 1.957312172748516 a24.598536431156596,24.598536431156596 0 0,0 -0.23272038224709438,0.3523683200905508 l -2.9856229593623045 -2.008860371178128" fill="#ff1702" stroke="none" /><path d="M 117.423217284605 111.72311816256416 l 3.2837218655030727 2.2094346189611245 a24.95783155597189,24.95783155597189 0 0,0 -0.24222201037816826,0.3534091520342284 l -3.245310118309584 -2.2654785060653966" fill="#ff1d02" stroke="none" /><path d="M 117.21940702142032 112.02048342749411 l 3.867100904165328 2.699536765298705 a25.716139114805213,25.716139114805213 0 0,0 -0.2557958659612339,0.35980891966839373 l -3.8201899396741337 -2.765522911676603" fill="#ff2803" stroke="none" /><path d="M 117.01052211995028 112.31430620078461 l 4.401977584660282 3.1866923004627568 a26.434373420522387,26.434373420522387 0 0,0 -0.26925043277222255,0.3652899230983849 l -4.346625132304232 -3.2617885328300193" fill="#ff3204" stroke="none" /><path d="M 116.57777611688842 112.89097897827486 l 3.7910281066915497 2.947926385591858 a25.802308203415727,25.802308203415727 0 0,0 -0.27489726247793883,0.3473237109558188 l -3.739864413572049 -3.0125700404623594" fill="#ff2904" stroke="none" /><path d="M 116.1254893667686 113.45245675266167 l 3.7543805832971566 3.1320378117590475 a25.889277494530976,25.889277494530976 0 0,0 -0.2876242469689041,0.338820639708487 l -3.700061772821138 -3.196025233917091" fill="#ff2a04" stroke="none" /><path d="M 115.89218393027572 113.72728997021213 l 4.309315204287735 3.7222838372520224 a26.694347591688892,26.694347591688892 0 0,0 -0.3025218753174159,0.3442143609365251 l -4.244782265011734 -3.795710475999841" fill="#ff3605" stroke="none" /><path d="M 115.6541949942343 113.99807769240083 l 2.39100350714164 2.1380500797453257 a24.20751553615296,24.20751553615296 0 0,0 -0.2796570917131725,0.30739213250456554 l -2.3539487145865876 -2.178779787807563" fill="#ff1202" stroke="none" /><path d="M 115.41159269507618 114.26474011684316 l 4.030186509525225 3.7302804660255386 a26.491574970513543,26.491574970513543 0 0,0 -0.3117732480524254,0.3310923852634231 l -3.9655574277365395 -3.798914311233459" fill="#ff3304" stroke="none" /><path d="M 114.65682725009322 115.03919595460226 l 4.073564553181029 4.179836093014037 a26.836519333763558,26.836519333763558 0 0,0 -0.33268020791362657,0.3187001136504955 l -4.0012118594020905 -4.249148336970113" fill="#ff3805" stroke="none" /><path d="M 113.86319453409587 115.77377054828091 l 14.303786656585668 16.275083505293917 a42.66740999338427,42.66740999338427 0 0,0 -0.5543116662650777,0.47880121511783547 l -14.022295510557736 -16.518228852876472" fill="#f4ff19" stroke="none" /><path d="M 112.45986205192187 116.90419585922612 l 9.86805826787385 13.387916255835698 a37.631743013028526,37.631743013028526 0 0,0 -0.5232944558348135,0.3788248307067061 l -9.636782801665069 -13.555341857915481" fill="#ffcb12" stroke="none" /><path d="M 112.16784306229584 117.11559508785304 l 3.126039609678379 4.397166195678242 a26.39510835791957,26.39510835791957 0 0,0 -0.3715487428381706,0.2593698784305836 l -3.05009577566645 -4.4501808899139474" fill="#ff3204" stroke="none" /><path d="M 111.5731344415666 117.5232005979908 l 1.4760663746440694 2.234952623200995 a23.678392273418496,23.678392273418496 0 0,0 -0.341097803226843,0.22109547502489602 l -1.4374829391602169 -2.259961939929786" fill="#ff0a01" stroke="none" /><line stroke="#e1ed5e" stroke-width="0.3" x1="143.1302829299769" x2="145.66735839644613" y1="173.24464959558577" y2="177.55315839532614" /><path d="M 143.63769802327073 174.10635135553383 a86.0,86.0 0 0,1 -40.68552437913181,11.842963189579606" fill="none" id="id18" stroke="none" /><text fill="#e1ed5e" style="font-size:6.75px; font-family:Arial;" text-anchor="middle"><textPath startOffset="21.407464694133747" xlink:href="#id18">June</textPath></text><path d="M 107.74402155503746 119.51999308798841 l 0.7486019964175169 1.8869660539902195 a23.03003592035996,23.03003592035996 0 0,0 -0.36873032724739896,0.14263281180890286 l -0.7160994066765886 -1.8995387539371629" fill="#ff0000" stroke="none" /><path d="M 106.0420521117495 120.11202640906438 l 0.6736984114366016 2.242522903139006 a23.34153336954125,23.34153336954125 0 0,0 -0.3847351462632057,0.11199079388711757 l -0.6351032527917891 -2.2537573913286417" fill="#ff0500" stroke="none" /><path d="M 103.2317021107853 120.74984581791261 l 9.658557189758964 62.01486573967961 a83.76249915115181,83.76249915115181 0 0,0 -1.4226657399415907,0.209082871586031 l -8.592566344209688 -62.17152968456452" fill="#4dd4ff" stroke="none" /><path d="M 101.08105385017728 120.97215588758144 l 0.26504683657435807 5.141837821710923 a26.148664488035223,26.148664488035223 0 0,0 -0.4484797782515326,0.019259651367837603 l -0.17674129772199587 -5.1456300415045915" fill="#ff2e04" stroke="none" /><path d="M 100.72087961077811 120.9876233191556 l 0.1975126328033467 5.75036479888357 a26.75375586555045,26.75375586555045 0 0,0 -0.45912844821648213,0.011825520185329907 l -0.09877087051612074 -5.752908036418945" fill="#ff3705" stroke="none" /><line stroke="#e1ed5e" stroke-width="0.3" x1="101.45913802915013" x2="101.54496967792366" y1="184.9874750549273" y2="189.98673829345242" /><path d="M 101.47630435890484 185.9873277026323 a86.0,86.0 0 0,1 -42.54439059252881,-10.42667462771756" fill="none" id="id19" stroke="none" /><text fill="#e1ed5e" style="font-size:6.75px; font-family:Arial;" text-anchor="middle"><textPath startOffset="22.145653131862474" xlink:href="#id19">July</textPath></text><path d="M 98.55909050195518 120.95050786540614 l -0.5229422376113702 7.603465364824253 a28.62142730319984,28.62142730319984 0 0,0 -0.489877542216982,-0.03791961996970282 l 0.6533887746035882 -7.593367977859497" fill="#ff5107" stroke="none" /><path d="M 97.48249496171623 120.84855314841334 l -0.2412462321892214 1.9978648769975227 a23.012377651258785,23.012377651258785 0 0,0 -0.3917826372071264,-0.05072410614811551 l 0.27550669128714184 -1.9934291746490103" fill="#ff0000" stroke="none" /><path d="M 95.35216902796893 120.47920084513623 l -1.3602139349879312 5.993353573871033 a27.145768382421195,27.145768382421195 0 0,0 -0.45355129940076055,-0.10703687170241831 l 1.4628973881285798 -5.969120558522388" fill="#ff3c05" stroke="none" /><path d="M 94.30408787586889 120.21278271476187 l -1.5855411397654373 5.626526155068356 a26.84565969583904,26.84565969583904 0 0,0 -0.44249315784406296,-0.12880330928402786 l 1.681894309991107 -5.598479151481811" fill="#ff3805" stroke="none" /><line stroke="#e1ed5e" stroke-width="0.3" x1="58.13341422392154" x2="55.67067388415222" y1="173.97424548756322" y2="178.32567169271397" /><path d="M 57.64086615596768 174.84453072859336 a86.0,86.0 0 0,1 -31.369924170532247,-30.572349798747897" fill="none" id="id20" stroke="none" /><text fill="#e1ed5e" style="font-size:6.75px; font-family:Arial;" text-anchor="middle"><textPath startOffset="22.145653131862474" xlink:href="#id20">August</textPath></text><line stroke="#e1ed5e" stroke-width="0.3" x1="26.387840678322732" x2="22.057713659400548" y1="142.50000000000003" y2="145.00000000000006" /><path d="M 25.521815274538298 143.00000000000003 a86.0,86.0 0 0,1 -11.493303480769221,-40.785679425670985" fill="none" id="id21" stroke="none" /><text fill="#e1ed5e" style="font-size:6.75px; font-family:Arial;" text-anchor="middle"><textPath startOffset="21.40746469413373" xlink:href="#id21">September</textPath></text><path d="M 81.4637452351635 109.86951160357371 l -11.544677295715713 6.146890403433949 a34.07913741399035,34.07913741399035 0 0,0 -0.27051034396219553,-0.5187392526733292 l 11.648495708652858 -5.947804907656117" fill="#ff9c0e" stroke="none" /><path d="M 80.83023694016515 108.57439118712176 l -57.50928917950453 25.7231735613653 a84.0,84.0 0 0,0 -0.577464471932128,-1.3213517208966026 l 57.942387533453626 -24.73215977069285" fill="#4dd2ff" stroke="none" /><path d="M 80.28708602549918 107.23885506374661 l -6.699460603457089 2.4601347307880332 a28.136878538331946,28.136878538331946 0 0,0 -0.16260413309077085,-0.45483270001521753 l 6.7407049065918025 -2.344767074391894" fill="#ff4a06" stroke="none" /><path d="M 79.34024301695615 103.76489593502545 l -16.892154607626765 3.0783132767859693 a38.1703494407657,38.1703494407657 0 0,0 -0.11193942555689272,-0.6456368598674064 l 16.942508850675893 -2.78788338399797" fill="#ffd213" stroke="none" /><path d="M 79.22317932658666 103.0534771498775 l -6.016066501017913 0.884154601021723 a27.080689558197967,27.080689558197967 0 0,0 -0.06364669167443184,-0.46051575539220724 l 6.030357709247557 -0.7807505374294302" fill="#ff3b05" stroke="none" /><line stroke="#e1ed5e" stroke-width="0.3" x1="15.003131293944662" x2="10.003315487706104" y1="100.72959589197737" y2="100.7725132973878" /><path d="M 14.003168132696942 100.73817937305945 a86.0,86.0 0 0,1 10.791469493833604,-42.45332614584628" fill="none" id="id22" stroke="none" /><text fill="#e1ed5e" style="font-size:6.75px; font-family:Arial;" text-anchor="middle"><textPath startOffset="22.145653131862435" xlink:href="#id22">October</textPath></text><line stroke="#e1ed5e" stroke-width="0.3" x1="26.387840678322718" x2="22.05771365940052" y1="57.49999999999999" y2="54.99999999999999" /><path d="M 25.521815274538284 56.99999999999999 a86.0,86.0 0 0,1 29.574782752854787,-30.34633250058573" fill="none" id="id23" stroke="none" /><text fill="#e1ed5e" style="font-size:6.75px; font-family:Arial;" text-anchor="middle"><textPath startOffset="21.40746469413373" xlink:href="#id23">November</textPath></text><line stroke="#e1ed5e" stroke-width="0.3" x1="56.869717070023135" x2="54.33264160355391" y1="26.7553504044142" y2="22.446841604673864" /><path d="M 56.362301976729285 25.89364864446614 a86.0,86.0 0 0,1 42.16139366436587,-11.88097634709845" fill="none" id="id24" stroke="none" /><text fill="#e1ed5e" style="font-size:6.75px; font-family:Arial;" text-anchor="middle"><textPath startOffset="22.145653131862474" xlink:href="#id24">December</textPath></text></svg>