<?xml version="1.0" encoding="utf-8" ?>
<svg baseProfile="full" height="200mm" version="1.1" viewBox="0,0,200,200" width="200mm" xmlns="http://www.w3.org/2000/svg" xmlns:ev="http://www.w3.org/2001/xml-events" xmlns:xlink="http://www.w3.org/1999/xlink"><defs /><rect fill="#1a1a1a" height="200" width="200" x="0" y="0" /><text alignment-baseline="middle" fill="#e1ed5e" style="dominant-baseline: central; font-size:9.0px; font-family:Arial;" text-anchor="middle" x="100.0" y="100.0">2024</text><line stroke="#e1ed5e" stroke-width="0.3" x1="100.0" x2="100.0" y1="15.0" y2="10.0" /><path d="M 100.0 14.0 a86.0,86.0 0 0,1 42.35913384403234,11.155469271406648" fill="none" id="id13" stroke="none" /><text fill="#e1ed5e" style="font-size:6.75px; font-family:Arial;" text-anchor="middle"><textPath startOffset="22.145653131862478" xlink:href="#id13">January</textPath></text><path d="M 104.29559338865022 79.4440306129975 l 1.4206733211343037 -6.798436131159135 a27.945289519871203,27.945289519871203 0 0,0 0.4687324403503843,0.10215805373674204 l -1.5371681781038222 6.7730466192886745" fill="#ff4806" stroke="none" /><path d="M 106.04205211174951 79.88797359093562 l 0.619674664892872 -2.062695421166248 a23.153766257236448,23.153766257236448 0 0,0 0.3796769664276261,0.1176248947356815 l -0.6549922641921282 2.0517539386239196" fill="#ff0200" stroke="none" /><line stroke="#e1ed5e" stroke-width="0.3" x1="143.13028292997686" x2="145.6673583964461" y1="26.7553504044142" y2="22.446841604673864" /><path d="M 143.63769802327073 25.89364864446614 a86.0,86.0 0 0,1 29.32050498858742,28.57503671076993" fill="none" id="id14" stroke="none" /><text fill="#e1ed5e" style="font-size:6.75px; font-family:Arial;" text-anchor="middle"><textPath startOffset="20.669276256404974" xlink:href="#id14">February</textPath></text><line stroke="#e1ed5e" stroke-width="0.3" x1="172.87174338648825" x2="177.1583165268699" y1="56.24261187166439" y2="53.66864786411523" /><path d="M 173.72905801456457 55.72781907015455 a86.0,86.0 0 0,1 12.242430191666344,42.057860355516425" fill="none" id="id15" stroke="none" /><text fill="#e1ed5e" style="font-size:6.75px; font-family:Arial;" text-anchor="middle"><textPath startOffset="22.145653131862474" xlink:href="#id15">March</textPath></text><path d="M 119.71291397450082 92.76114493625339 l 9.69047921826786 -3.558478196071258 a31.323185290964986,31.323185290964986 0 0,0 0.1810179257425509,0.5063393552898121 l -9.750137314054355 3.3916038844005287" fill="#ff770a" stroke="none" /><path d="M 120.05942366710727 93.78553927170692 l 5.162638132226154 -1.5993984901827631 a26.4047116495438,26.4047116495438 0 0,0 0.13041875531113212,0.4341216200294016 l -5.189333207540913 1.5105392665626383" fill="#ff3204" stroke="none" /><line stroke="#e1ed5e" stroke-width="0.3" x1="184.99686870605535" x2="189.99668451229388" y1="99.2704041080226" y2="99.22748670261217" /><path d="M 185.99683186730306 99.26182062694052 a86.0,86.0 0 0,1 -10.086455211305974,41.156179273409016" fill="none" id="id16" stroke="none" /><text fill="#e1ed5e" style="font-size:6.75px; font-family:Arial;" text-anchor="middle"><textPath startOffset="21.40746469413373" xlink:href="#id16">April</textPath></text><path d="M 120.98066250479742 100.90099992219065 l 13.31879444798199 0.5719663408417627 a34.331070138689235,34.331070138689235 0 0,0 -0.030339528287094925,0.5885787434995219 l -13.307013330238323 -0.8005168777180153" fill="#ffa00e" stroke="none" /><path d="M 120.9064616781168 101.97986365728391 l 17.56289911867671 1.6632248066160498 a38.641477891893246,38.641477891893246 0 0,0 -0.06820700649643222,0.6598409154446192 l -17.531759719698613 -1.9644702443436004" fill="#ffd814" stroke="none" /><path d="M 120.51834098615036 104.47187691870673 l 3.629625724957717 0.7910600332618738 a24.71482958956385,24.71482958956385 0 0,0 -0.09390356950954526,0.4137564536304146 l -3.6155112938905076 -0.8532508208313054" fill="#ff1902" stroke="none" /><path d="M 120.26092885502905 105.52220625578681 l 13.229345044108136 3.605716820055995 a34.711920510362624,34.711920510362624 0 0,0 -0.16162780621383724,0.5735600649144985 l -13.165498745819718 -3.8322848088735015" fill="#ffa50f" stroke="none" /><line stroke="#e1ed5e" stroke-width="0.3" x1="174.33088141563837" x2="178.70328620479359" y1="141.23008692659167" y2="143.65538615756765" /><path d="M 175.20536237346943 141.71514677278685 a86.0,86.0 0 0,1 -30.301960400862466,31.631185727798858" fill="none" id="id17" stroke="none" /><text fill="#e1ed5e" style="font-size:6.75px; font-family:Arial;" text-anchor="middle"><textPath startOffset="22.145653131862474" xlink:href="#id17">May</textPath></text><path d="M 118.36410011445183 110.18625677009912 l 10.958375396823895 6.0784261074323265 a33.53129104606665,33.53129104606665 0 0,0 -0.2835256436923258,0.5009626455018722 l -10.852416388110191 -6.265645523033322" fill="#ff950d" stroke="none" /><path d="M 118.18653347947321 110.5 l 5.520442835151252 3.1872291569205147 a27.374458313841032,27.374458313841032 0 0,0 -0.23845276650277805,0.40494492827579276 l -5.464916358518709 -3.281525253489857" fill="#ff3f05" stroke="none" /><path d="M 117.62189284568427 111.42229804090321 l 3.031094566760994 1.9647188775288507 a24.612153726015304,24.612153726015304 0 0,0 -0.23284921194692465,0.35256338467607884 l -2.9969209158933428 -2.0164621405439904" fill="#ff1702" stroke="none" /><path d="M 117.423217284605 111.72311816256416 l 3.296147864164474 2.217795385415216 a24.97280846681602,24.97280846681602 0 0,0 -0.24236736505154138,0.3536212288466568 l -3.257590762297612 -2.2740513493319168" fill="#ff1d02" stroke="none" /><path d="M 117.21940702142032 112.02048342749411 l 3.8817344793056203 2.7097521372473476 a25.733985552697288,25.733985552697288 0 0,0 -0.25597338269555187,0.36005861918624166 l -3.834645998080108 -2.7759879831430934" fill="#ff2803" stroke="none" /><path d="M 117.01052211995028 112.31430620078461 l 4.41863519751999 3.198751127574712 a26.4549377434507,26.4549377434507 0 0,0 -0.269459893112365,0.36557409627781123 l -4.3630732848237965 -3.2741315331214" fill="#ff3204" stroke="none" /><path d="M 116.57777611688842 112.89097897827486 l 3.8053738132125434 2.9590816937518127 a25.82048071550762,25.82048071550762 0 0,0 -0.27509087204910687,0.34756833032426393 l -3.7540165105218746 -3.0239699679907597" fill="#ff2904" stroke="none" /><path d="M 116.1254893667686 113.45245675266167 l 3.768587611179917 3.1438898197093024 a25.907779108885254,25.907779108885254 0 0,0 -0.28782979588379687,0.33906277581338534 l -3.7140632517890055 -3.208119377972244" fill="#ff2a04" stroke="none" /><path d="M 115.89218393027572 113.72728997021213 l 4.325622171550271 3.736369407185626 a26.715895688162963,26.715895688162963 0 0,0 -0.30276607572472936,0.3444922161727973 l -4.260845031866957 -3.8100739011697167" fill="#ff3605" stroke="none" /><path d="M 115.6541949942343 113.99807769240083 l 2.4000513521163507 2.146140718513493 a24.219653160894374,24.219653160894374 0 0,0 -0.2797973115069146,0.3075462586207806 l -2.362856339767556 -2.1870245526919456" fill="#ff1202" stroke="none" /><path d="M 115.41159269507618 114.26474011684316 l 4.045437220219897 3.744396296164637 a26.512355750989947,26.512355750989947 0 0,0 -0.3120178122745754,0.3313521039922351 l -3.980563574209062 -3.8132898601013694" fill="#ff3304" stroke="none" /><path d="M 114.65682725009322 115.03919595460226 l 4.08897941161247 4.195653095739604 a26.858605425216822,26.858605425216822 0 0,0 -0.3329539992129113,0.3189623995218005 l -4.016352926534246 -4.265227625566985" fill="#ff3805" stroke="none" /><path d="M 113.86319453409587 115.77377054828091 l 14.35791390643436 16.33667037961952 a42.74940207998645,42.74940207998645 0 0,0 -0.5553768626327985,0.47972130637018146 l -14.075357564038706 -16.58073581845442" fill="#f3ff19" stroke="none" /><path d="M 112.45986205192187 116.90419585922612 l 9.905400187759149 13.43857774188347 a37.69467952984737,37.69467952984737 0 0,0 -0.5241696300277668,0.3794583893308951 l -9.673249547357413 -13.606636902587443" fill="#ffcc13" stroke="none" /><path d="M 112.16784306229584 117.11559508785304 l 3.1378689197102125 4.413805601663097 a26.415524097126323,26.415524097126323 0 0,0 -0.3718361234442102,0.2595704924127019 l -3.061637705092244 -4.467020909880921" fill="#ff3204" stroke="none" /><path d="M 111.5731344415666 117.5232005979908 l 1.4816519874172294 2.2434099528536464 a23.688527632065593,23.688527632065593 0 0,0 -0.3412438075893657,0.22119011328870852 l -1.442922547570854 -2.2685139078462497" fill="#ff0a01" stroke="none" /><line stroke="#e1ed5e" stroke-width="0.3" x1="143.1302829299769" x2="145.66735839644613" y1="173.24464959558577" y2="177.55315839532614" /><path d="M 143.63769802327073 174.10635135553383 a86.0,86.0 0 0,1 -40.68552437913181,11.842963189579606" fill="none" id="id18" stroke="none" /><text fill="#e1ed5e" style="font-size:6.75px; font-family:Arial;" text-anchor="middle"><textPath startOffset="21.407464694133747" xlink:href="#id18">June</textPath></text><path d="M 107.74402155503746 119.51999308798841 l 0.751434796449435 1.8941065605925964 a23.037717820551933,23.037717820551933 0 0,0 -0.36885332095793694,0.1426803884183448 l -0.7188092129979686 -1.9067268371489818" fill="#ff0000" stroke="none" /><path d="M 106.0420521117495 120.11202640906438 l 0.6762477672899837 2.25100887964186 a23.35039401356266,23.35039401356266 0 0,0 -0.3848811949875801,0.11203330654224604 l -0.6375065599207969 -2.2622858804866244" fill="#ff0500" stroke="none" /><path d="M 103.2317021107853 120.74984581791261 l 9.695106332355914 62.24953745373786 a84.0,84.0 0 0,0 -1.426699577569258,0.20967570680447034 l -8.625081649178972 -62.406794233841204" fill="#4dd2ff" stroke="none" /><path d="M 101.08105385017728 120.97215588758144 l 0.26604980569640235 5.161295154733227 a26.168147653984335,26.168147653984335 0 0,0 -0.4488139370361426,0.019274001583845513 l -0.1774101080594302 -5.165101724742904" fill="#ff2e04" stroke="none" /><path d="M 100.72087961077811 120.9876233191556 l 0.19826004437209355 5.772124871210081 a26.775528770081266,26.775528770081266 0 0,0 -0.4595020989263352,0.011835144102185407 l -0.0991446313750145 -5.774677732662311" fill="#ff3705" stroke="none" /><line stroke="#e1ed5e" stroke-width="0.3" x1="101.45913802915013" x2="101.54496967792366" y1="184.9874750549273" y2="189.98673829345242" /><path d="M 101.47630435890484 185.9873277026323 a86.0,86.0 0 0,1 -42.54439059252881,-10.42667462771756" fill="none" id="id19" stroke="none" /><text fill="#e1ed5e" style="font-size:6.75px; font-family:Arial;" text-anchor="middle"><textPath startOffset="22.145653131862474" xlink:href="#id19">July</textPath></text><path d="M 98.55909050195518 120.95050786540614 l -0.5249211139628706 7.632237792671408 a28.650267701183125,28.650267701183125 0 0,0 -0.4903711676092779,-0.037957829696971694 l 0.6558612763473846 -7.622102195979382" fill="#ff5207" stroke="none" /><path d="M 97.48249496171623 120.84855314841334 l -0.242159136960403 2.0054250380903462 a23.0199927304357,23.0199927304357 0 0,0 -0.3919122829068314,-0.05074089137953965 l 0.2765492417580284 -2.0009725505104092" fill="#ff0000" stroke="none" /><path d="M 95.35216902796893 120.47920084513623 l -1.3653611481891894 6.016033144960349 a27.16902470948577,27.16902470948577 0 0,0 -0.4539398659430972,-0.1071285723483979 l 1.4684331678721745 -5.991708428965723" fill="#ff3d05" stroke="none" /><path d="M 94.30408787586889 120.21278271476187 l -1.591541018222654 5.647817607065466 a26.867780375522237,26.867780375522237 0 0,0 -0.44285776983414166,-0.1289094425204277 l 1.6882588004384023 -5.6196644702425225" fill="#ff3805" stroke="none" /><line stroke="#e1ed5e" stroke-width="0.3" x1="58.13341422392154" x2="55.67067388415222" y1="173.97424548756322" y2="178.32567169271397" /><path d="M 57.64086615596768 174.84453072859336 a86.0,86.0 0 0,1 -31.369924170532247,-30.572349798747897" fill="none" id="id20" stroke="none" /><text fill="#e1ed5e" style="font-size:6.75px; font-family:Arial;" text-anchor="middle"><textPath startOffset="22.145653131862474" xlink:href="#id20">August</textPath></text><line stroke="#e1ed5e" stroke-width="0.3" x1="26.387840678322732" x2="22.057713659400548" y1="142.50000000000003" y2="145.00000000000006" /><path d="M 25.521815274538298 143.00000000000003 a86.0,86.0 0 0,1 -11.493303480769221,-40.785679425670985" fill="none" id="id21" stroke="none" /><text fill="#e1ed5e" style="font-size:6.75px; font-family:Arial;" text-anchor="middle"><textPath startOffset="21.40746469413373" xlink:href="#id21">September</textPath></text><line stroke="#e1ed5e" stroke-width="0.3" x1="15.003131293944662" x2="10.003315487706104" y1="100.72959589197737" y2="100.7725132973878" /><path d="M 14.003168132696942 100.73817937305945 a86.0,86.0 0 0,1 10.791469493833604,-42.45332614584628" fill="none" id="id22" stroke="none" /><text fill="#e1ed5e" style="font-size:6.75px; font-family:Arial;" text-anchor="middle"><textPath startOffset="22.145653131862435" xlink:href="#id22">October</textPath></text><line stroke="#e1ed5e" stroke-width="0.3" x1="26.387840678322718" x2="22.05771365940052" y1="57.49999999999999" y2="54.99999999999999" /><path d="M 25.521815274538284 56.99999999999999 a86.0,86.0 0 0,1 29.574782752854787,-30.34633250058573" fill="none" id="id23" stroke="none" /><text fill="#e1ed5e" style="font-size:6.75px; font-family:Arial;" text-anchor="middle"><textPath startOffset="21.40746469413373" xlink:href="#id23">November</textPath></text><line stroke="#e1ed5e" stroke-width="0.3" x1="56.869717070023135" x2="54.33264160355391" y1="26.7553504044142" y2="22.446841604673864" /><path d="M 56.362301976729285 25.89364864446614 a86.0,86.0 0 0,1 42.16139366436587,-11.88097634709845" fill="none" id="id24" stroke="none" /><text fill="#e1ed5e" style="font-size:6.75px; font-family:Arial;" text-anchor="middle"><textPath startOffset="22.145653131862474" xlink:href="#id24">December</textPath></text></svg>