<?xml version="1.0" encoding="utf-8" ?>
<svg baseProfile="full" height="200mm" version="1.1" viewBox="0,0,200,200" width="200mm" xmlns="http://www.w3.org/2000/svg" xmlns:ev="http://www.w3.org/2001/xml-events" xmlns:xlink="http://www.w3.org/1999/xlink"><defs /><rect fill="#1a1a1a" height="200" width="200" x="0" y="0" /><text alignment-baseline="middle" fill="#e1ed5e" style="dominant-baseline: central; font-size:9.0px; font-family:Arial;" text-anchor="middle" x="100.0" y="100.0">2024</text><line stroke="#e1ed5e" stroke-width="0.3" x1="100.0" x2="100.0" y1="15.0" y2="10.0" /><path d="M 100.0 14.0 a86.0,86.0 0 0,1 42.35913384403234,11.155469271406648" fill="none" id="id13" stroke="none" /><text fill="#e1ed5e" style="font-size:6.75px; font-family:Arial;" text-anchor="middle"><textPath startOffset="22.145653131862478" xlink:href="#id13">January</textPath></text><path d="M 100.72087961077811 79.0123766808444 l 1.2718782880860957 -37.029348616685695 a58.051185316474665,58.051185316474665 0 0,0 0.9956448341705316,0.04275727317533241 l -1.9073488828574636 37.002058775084535" fill="#52ff2b" stroke="none" /><path d="M 101.44090949804482 79.04949213459386 l 2.5138192265364614 -36.550379846356805 a57.636724116884004,57.636724116884004 0 0,0 0.98649646129496,0.07636106514389321 l -3.140884682606655 36.50184101421786" fill="#56ff2a" stroke="none" /><path d="M 101.80034050326958 79.07731436759882 l 3.1231612496071066 -36.29586785730502 a57.42998983949893,57.42998983949893 0 0,0 0.9815070680090684,0.09294973980950978 l -3.745767881001188 36.23690636199033" fill="#58ff2a" stroke="none" /><path d="M 102.87502721639298 79.19773525538626 l 4.503927831255951 -32.58817815782854 a53.897944032348505,53.897944032348505 0 0,0 0.9154306426524271,0.1345367798844102 l -5.06268357951606 32.50606030464524" fill="#7fff26" stroke="none" /><path d="M 105.3480935250658 79.69241777938227 l 9.750493447429884 -37.02421179570536 a59.28660838415465,59.28660838415465 0 0,0 0.9819516700719126,0.26763529422322024 l -10.38462651843649 36.851376007338" fill="#45ff2d" stroke="none" /><path d="M 106.04205211174951 79.88797359093562 l 8.907787217048025 -29.651126544772747 a51.96026450917904,51.96026450917904 0 0,0 0.8520478001049329,0.2639665864908769 l -9.415475650024588 29.493843370475222" fill="#95ff23" stroke="none" /><path d="M 106.38641147887787 79.99465700312896 l 5.75340709306657 -18.02246577410494 a39.91853497915028,39.91853497915028 0 0,0 0.6510090750843915,0.21399961366351958 l -6.061938905798704 17.921045239039398" fill="#ffd313" stroke="none" /><path d="M 107.06938296918511 80.22567764915836 l 19.59294599830399 -54.80495704673299 a79.20194884870011,79.20194884870011 0 0,0 1.2763237476445346,0.4686837590610762 l -20.53085889760265 54.46054243866319" fill="#47fffd" stroke="none" /><path d="M 108.07796709384702 80.6158196554323 l 9.645984416821527 -23.146851103043012 a46.07631813795652,46.07631813795652 0 0,0 0.7274900457064242,0.3105222412799603 l -10.04190953769838 22.97785421210365" fill="#dcff1b" stroke="none" /><path d="M 108.4095320186766 80.7573450057729 l 7.4398312145990255 -17.023789785194253 a39.578495825879074,39.578495825879074 0 0,0 0.6202263100681492,0.2774193395333074 l -7.730970927522806 16.89356669475109" fill="#ffcf13" stroke="none" /><path d="M 110.02825361518725 81.54914285379988 l 13.304048574174418 -24.47795091026085 a48.859788032738734,48.859788032738734 0 0,0 0.7334920067991384,0.40685565170664206 l -13.722284769129656 24.245962343121064" fill="#baff1f" stroke="none" /><line stroke="#e1ed5e" stroke-width="0.3" x1="143.13028292997686" x2="145.6673583964461" y1="26.7553504044142" y2="22.446841604673864" /><path d="M 143.63769802327073 25.89364864446614 a86.0,86.0 0 0,1 29.32050498858742,28.57503671076993" fill="none" id="id14" stroke="none" /><text fill="#e1ed5e" style="font-size:6.75px; font-family:Arial;" text-anchor="middle"><textPath startOffset="20.669276256404974" xlink:href="#id14">February</textPath></text><path d="M 110.65571695917076 81.90426304109057 l 15.28327048596259 -25.954334527234423 a51.119857859868596,51.119857859868596 0 0,0 0.7523558835202555,0.4517680911135888 l -15.726559126040279 25.688152435584914" fill="#9fff22" stroke="none" /><path d="M 111.5731344415666 82.4767994020092 l 21.43714295544648 -32.45856670487656 a59.89871014091817,59.89871014091817 0 0,0 0.8531393591119254,0.5740302352103782 l -21.991178602655406 32.08578679560907" fill="#3eff2d" stroke="none" /><path d="M 112.16784306229584 82.88440491214696 l 19.42705391882739 -27.32658425344621 a54.52838545062558,54.52838545062558 0 0,0 0.7582535250109768,0.5489170772635191 l -19.893288454212335 26.989066404809616" fill="#78ff26" stroke="none" /><path d="M 112.7482090630111 83.31218511350987 l 19.450643565428035 -25.461516801191845 a53.04085474713029,53.04085474713029 0 0,0 0.7188047518609878,0.558946922698777 l -19.88485826192425 25.123868826872275" fill="#89ff24" stroke="none" /><path d="M 113.31354834802062 83.75963576809568 l 15.820827888035726 -19.298837592772152 a45.95483375009829,45.95483375009829 0 0,0 0.6057846405404993,0.5053670926162276 l -16.149786862738118 19.024408316244052" fill="#ddff1b" stroke="none" /><path d="M 113.86319453409587 84.22622945171908 l 12.149847837082586 -13.824296521794924 a39.40461835482528,39.40461835482528 0 0,0 0.5042570979342426,0.45090980637636446 l -12.385369961840205 13.613691185535172" fill="#ffcc13" stroke="none" /><path d="M 114.39649973595853 84.71141617570332 l 25.259216363290236 -26.82441244670347 a57.84531333016954,57.84531333016954 0 0,0 0.717082220170722,0.6869485458674861 l -25.71597106932627 26.386851770530402" fill="#54ff2b" stroke="none" /><path d="M 114.91283532996326 85.21462403516908 l 26.235845133213648 -26.011608488041905 a57.944869007605696,57.944869007605696 0 0,0 0.6942711356143264,0.7123833470890938 l -26.678503069978785 25.557402448885068" fill="#53ff2b" stroke="none" /><path d="M 115.6541949942343 86.00192230759917 l 28.090802586358386 -25.118968889206194 a58.68362758550015,58.68362758550015 0 0,0 0.6650501948630241,0.7567050401736988 l -28.51786384518 24.6330515712212" fill="#4bff2c" stroke="none" /><path d="M 115.8921839302757 86.27271002978787 l 13.313145504649897 -11.499578003863727 a38.592047564025236,38.592047564025236 0 0,0 0.4287492620037712,0.5050655525657611 l -13.508589330160781 11.269345668848414" fill="#ffc112" stroke="none" /><path d="M 116.1254893667686 86.54754324733833 l 14.744094357639355 -12.30004790503005 a40.201028537372856,40.201028537372856 0 0,0 0.4375272829569176,0.5337121442663444 l -14.953068459834899 12.04513347906521" fill="#ffd714" stroke="none" /><path d="M 116.7966241395341 87.39550010848427 l 23.2603572033065 -17.45500568507846 a50.08129021710581,50.08129021710581 0 0,0 0.5101088968607256,0.6920606878418343 l -23.556568119751052 17.053138687967753" fill="#abff21" stroke="none" /><path d="M 117.01052211995028 87.68569379921539 l 33.31360043541578 -24.116477643632752 a62.12663939475693,62.12663939475693 0 0,0 0.6179674737446889,0.8692486420088601 l -33.72268300769043 23.541051774914386" fill="#30ff39" stroke="none" /><path d="M 117.62189284568427 88.57770195909679 l 17.864861415429147 -11.579787332348868 a42.28954551076458,42.28954551076458 0 0,0 0.3896323278816531,0.6125667356394545 l -18.061011434936688 11.27140692203074" fill="#fff216" stroke="none" /><line stroke="#e1ed5e" stroke-width="0.3" x1="172.87174338648825" x2="177.1583165268699" y1="56.24261187166439" y2="53.66864786411523" /><path d="M 173.72905801456457 55.72781907015455 a86.0,86.0 0 0,1 12.242430191666344,42.057860355516425" fill="none" id="id15" stroke="none" /><text fill="#e1ed5e" style="font-size:6.75px; font-family:Arial;" text-anchor="middle"><textPath startOffset="22.145653131862474" xlink:href="#id15">March</textPath></text><path d="M 118.18653347947321 89.5 l 30.016584936944785 -17.33008339349834 a55.660166786996676,55.660166786996676 0 0,0 0.47063754851028433,0.8315714525987682 l -30.309655850476446 16.812255170800455" fill="#6cff28" stroke="none" /><path d="M 118.36410011445183 89.81374322990088 l 43.37065085777596 -24.05696893233327 a70.59587795410371,70.59587795410371 0 0,0 0.5787337470374648,1.0648049104085315 l -43.77722995442877 23.308909188450134" fill="#3bff9f" stroke="none" /><path d="M 119.0197475246899 91.09779779509293 l 30.80876340759848 -14.420056900416467 a55.01643637591433,55.01643637591433 0 0,0 0.3930152449857526,0.8588092382528356 l -31.051763117439283 13.889058679948947" fill="#73ff27" stroke="none" /><path d="M 119.31412917781788 91.75594674310238 l 31.36924614009221 -13.389665846527585 a55.1073709757782,55.1073709757782 0 0,0 0.3639032442800362,0.8732353119475369 l -31.59447522890873 12.84919802513877" fill="#72ff27" stroke="none" /><path d="M 119.83427380445688 93.10060997987247 l 35.100020262364815 -12.209609078302476 a58.162965116677476,58.162965116677476 0 0,0 0.31993668550258286,0.9458359616649098 l -35.30444236943976 11.605271442163405" fill="#51ff2b" stroke="none" /><path d="M 120.26092885502905 94.47779374421319 l 57.71012396791553 -15.729150912977655 a80.81525388089065,80.81525388089065 0 0,0 0.35331859131914795,1.341608240330492 l -57.9716320400394 14.736162168274365" fill="#49f1ff" stroke="none" /><path d="M 120.51834098615036 95.52812308129327 l 9.252992476324696 -2.016646643691772 a30.470202397648887,30.470202397648887 0 0,0 0.1069972607832141,0.5120206262921103 l -9.286247447932277 1.857509566114257" fill="#ff4f07" stroke="none" /><path d="M 120.592083275326 95.88100663000786 l 41.72505865062113 -8.346180308544843 a63.55160684557652,63.55160684557652 0 0,0 0.2047987079365153,1.0715933796204713 l -41.862183650839796 7.6286843638910575" fill="#32ff4b" stroke="none" /><path d="M 120.65975698304385 96.23510406497455 l 5.356363342697711 -0.9761078308904111 a26.444576637032615,26.444576637032615 0 0,0 0.07755209897772619,0.44729989823520516 l -5.372330259167671 0.8840148997346132" fill="#ff1302" stroke="none" /><path d="M 120.7213421655516 96.59031103205396 l 10.413302376384344 -1.713504943307751 a31.553339072196625,31.553339072196625 0 0,0 0.08335867475146878,0.5352224893828976 l -10.441182543274078 1.534494271993412" fill="#ff5f08" stroke="none" /><path d="M 120.93736805541906 98.37931529534042 l 25.868294159267307 -2.002369570453639 a46.945676453063655,46.945676453063655 0 0,0 0.055297622660725014,0.8040152973270179 l -25.8988557430931 1.5580108489722866" fill="#d1ff1c" stroke="none" /><path d="M 120.98066250479742 99.09900007780936 l 49.03371145006163 -2.105718548740865 a70.0789049304731,70.0789049304731 0 0,0 0.041297542068225106,1.2023328777455269 l -49.062633679126705 1.2636794064312185" fill="#3bff99" stroke="none" /><path d="M 120.99303781780057 99.45929381324524 l 38.5043206091626 -0.9917347146638134 a59.517090275843174,59.517090275843174 0 0,0 0.017539313534305927,1.0215770829750077 l -38.51567135429556 0.33061071571973916" fill="#42ff2d" stroke="none" /><line stroke="#e1ed5e" stroke-width="0.3" x1="184.99686870605535" x2="189.99668451229388" y1="99.2704041080226" y2="99.22748670261217" /><path d="M 185.99683186730306 99.26182062694052 a86.0,86.0 0 0,1 -10.086455211305974,41.156179273409016" fill="none" id="id16" stroke="none" /><text fill="#e1ed5e" style="font-size:6.75px; font-family:Arial;" text-anchor="middle"><textPath startOffset="21.40746469413373" xlink:href="#id16">April</textPath></text><path d="M 120.99922638620191 100.18025310272382 l 37.29083060583264 0.32009693101202324 a58.292204404113036,58.292204404113036 0 0,0 -0.01717834734377424,1.000552612020183 l -37.2798408268902 -0.9601964590012774" fill="#4fff2b" stroke="none" /><path d="M 120.96210409425399 101.26102812881392 l 62.886312282761985 3.7830843864417396 a84.0,84.0 0 0,0 -0.09894415533973566,1.438626303382626 l -62.812104166257186 -4.86205411397871" fill="#4dd2ff" stroke="none" /><path d="M 120.77682067341334 103.0534771498775 l 27.91717760399304 4.102863726977522 a49.21705682978008,49.21705682978008 0 0,0 -0.1300232797267756,0.8348427282532894 l -27.842632832127997 -4.581494637162262" fill="#b6ff1f" stroke="none" /><path d="M 120.65975698304385 103.76489593502545 l 46.973838215618684 8.560198103766368 a68.74744462568488,68.74744462568488 0 0,0 -0.22154259399747814,1.1592044667842505 l -46.819969329339045 -9.365305135583933" fill="#39ff8a" stroke="none" /><path d="M 120.51834098615036 104.47187691870673 l 14.464385784989338 3.152445559746945 a35.803930867988065,35.803930867988065 0 0,0 -0.13603641889551069,0.5994015620574102 l -14.408138504536163 -3.400281455743372" fill="#ff9b0e" stroke="none" /><path d="M 120.43855184770803 104.8234425847677 l 23.23551774813433 5.483518921525014 a44.87379870876414,44.87379870876414 0 0,0 -0.18336817437185238,0.7482047259801117 l -23.137962047246184 -5.881579472113225" fill="#ebff1a" stroke="none" /><path d="M 120.35273937422433 105.17358676015961 l 4.889609687209441 1.2429196618186944 a26.045109729132548,26.045109729132548 0 0,0 -0.1138673831775919,0.4323730008250088 l -4.867552823227118 -1.3266731670165064" fill="#ff0d01" stroke="none" /><path d="M 120.26092885502905 105.52220625578681 l 35.66990593017419 9.72199147829505 a57.971060403665966,57.971060403665966 0 0,0 -0.2699284620145753,0.9578808858577216 l -35.49775897608504 -10.33288028805578" fill="#53ff2b" stroke="none" /><path d="M 120.05942366710727 106.21446072829308 l 17.16826822614289 5.3187733822640055 a38.97327972788126,38.97327972788126 0 0,0 -0.20346888571708638,0.6373633865315369 l -17.074434624648546 -5.612705802486927" fill="#ffc712" stroke="none" /><path d="M 119.83427380445688 106.89939002012753 l 27.546037156650595 9.581941629239363 a50.16500931633188,50.16500931633188 0 0,0 -0.2899055714463829,0.8109174797961944 l -27.377491415160268 -10.053394065416478" fill="#aaff21" stroke="none" /><path d="M 119.71291397450082 107.23885506374661 l 4.5200325895343685 1.6598185758520811 a25.815152366768512,25.815152366768512 0 0,0 -0.15632834636704648,0.4146795116634215 l -4.490873559352882 -1.7371663677096616" fill="#ff0901" stroke="none" /><path d="M 119.58574465831526 107.57618678355244 l 34.56858055066458 13.37186957468694 a58.064722543278585,58.064722543278585 0 0,0 -0.3675810072679905,0.9265442600013944 l -34.33394086843046 -13.963314851901899" fill="#52ff2b" stroke="none" /><path d="M 119.4528033332814 107.91128576633889 l 9.355917767987103 3.8049703068903553 a31.10004932253571,31.10004932253571 0 0,0 -0.20537014641315643,0.4928135890148903 l -9.289221777037461 -3.9650164053465233" fill="#ff5808" stroke="none" /><path d="M 119.31412917781788 108.2440532568976 l 37.12002312096537 15.844330577325222 a61.36011555910819,61.36011555910819 0 0,0 -0.4218248420123254,0.9652177891481327 l -36.84256439693608 -16.479210436249197" fill="#2fff2f" stroke="none" /><path d="M 119.0197475246899 108.90220220490707 l 24.16175581415966 11.30892171959813 a47.67737158123109,47.67737158123109 0 0,0 -0.3533137116186756,0.7382897701244228 l -23.96406284458107 -11.722023991787657" fill="#c8ff1d" stroke="none" /><path d="M 118.5362547648365 109.86951160357373 l 26.276783020453447 13.990906912701886 a50.769360123185045,50.769360123185045 0 0,0 -0.4161991162980892,0.7657594965050515 l -26.032738554540018 -14.439921242681542" fill="#a3ff21" stroke="none" /><line stroke="#e1ed5e" stroke-width="0.3" x1="174.33088141563837" x2="178.70328620479359" y1="141.23008692659167" y2="143.65538615756765" /><path d="M 175.20536237346943 141.71514677278685 a86.0,86.0 0 0,1 -30.301960400862466,31.631185727798858" fill="none" id="id17" stroke="none" /><text fill="#e1ed5e" style="font-size:6.75px; font-family:Arial;" text-anchor="middle"><textPath startOffset="22.145653131862474" xlink:href="#id17">May</textPath></text><path d="M 118.36410011445183 110.18625677009912 l 40.926536410722804 22.70125984895706 a67.80094637192809,67.80094637192809 0 0,0 -0.5732945664585362,1.0129565669078517 l -40.530808479242886 -23.400473185964035" fill="#38ff7f" stroke="none" /><path d="M 118.00360718960297 110.81064883170644 l 31.213466268768784 18.742789658665902 a57.40841442167676,57.40841442167676 0 0,0 -0.514576319237139,0.8405217455621574 l -30.88712198507624 -19.275848520352618" fill="#59ff2a" stroke="none" /><path d="M 117.423217284605 111.72311816256416 l 18.237245358785284 12.27083257979134 a42.98113851641457,42.98113851641457 0 0,0 -0.41714272157179166,0.608623697234512 l -18.023912900398173 -12.582091012095896" fill="#fffb17" stroke="none" /><path d="M 117.21940702142032 112.02048342749411 l 22.227417402430437 15.516463615125751 a48.10754004887549,48.10754004887549 0 0,0 -0.4785208934797776,0.6730995634925809 l -21.957781410420697 -15.895740405327837" fill="#c3ff1e" stroke="none" /><path d="M 116.79662413953412 112.60449989151573 l 27.872091337807646 20.915736955548585 a55.84711649386205,55.84711649386205 0 0,0 -0.5820014769116916,0.7618586157758066 l -27.50893788354165 -21.39111648456527" fill="#6aff28" stroke="none" /><path d="M 116.1254893667686 113.45245675266167 l 42.77633450890863 35.685539640388406 a76.70702409430771,76.70702409430771 0 0,0 -0.8521983684948926,1.0038875352646652 l -42.15744157690663 -36.41459395810263" fill="#43ffe3" stroke="none" /><path d="M 115.6541949942343 113.99807769240083 l 20.570625045512827 18.394379760466204 a48.59535869553662,48.59535869553662 0 0,0 -0.5613974165690824,0.617074103161732 l -20.251829928101863 -18.744791439185608" fill="#bdff1f" stroke="none" /><path d="M 115.16444852881244 114.52719865689866 l 23.0434815121442 22.0751340239938 a52.911026031417734,52.911026031417734 0 0,0 -0.6339577387694253,0.6504964886059668 l -22.661136972223968 -22.467453204667507" fill="#8aff24" stroke="none" /><path d="M 114.65682725009322 115.03919595460226 l 32.20775018853862 33.047989041368396 a67.1466006536312,67.1466006536312 0 0,0 -0.8323860776549724,0.7974070330586202 l -31.635691625018335 -33.59600820473259" fill="#37ff77" stroke="none" /><path d="M 114.13192950727249 115.5334660781643 l 22.44543014537909 24.67145959039984 a54.35383415338969,54.35383415338969 0 0,0 -0.6955607696789402,0.6219747292874559 l -22.01860434887677 -25.053129849570684" fill="#7aff26" stroke="none" /><path d="M 113.59037401385872 116.0094264158162 l 12.551471561449896 14.785601939161651 a40.394676152522536,40.394676152522536 0 0,0 -0.5324896724874605,0.44422182344051486 l -12.295807554800541 -14.998885946514037" fill="#ffda14" stroke="none" /><path d="M 112.45986205192187 116.90419585922612 l 21.971727113470315 29.808867621795393 a58.03141073794689,58.03141073794689 0 0,0 -0.806965425250882,0.5841807364825765 l -21.456780677845465 -30.18164912965105" fill="#52ff2b" stroke="none" /><path d="M 110.96478420261333 117.91015095944535 l 25.45259691206075 41.57490421893318 a69.74738301059158,69.74738301059158 0 0,0 -1.0265062573531534,0.6163875136202093 l -24.73515789815016 -42.00570573308931" fill="#3aff96" stroke="none" /><line stroke="#e1ed5e" stroke-width="0.3" x1="143.1302829299769" x2="145.66735839644613" y1="173.24464959558577" y2="177.55315839532614" /><path d="M 143.63769802327073 174.10635135553383 a86.0,86.0 0 0,1 -40.68552437913181,11.842963189579606" fill="none" id="id18" stroke="none" /><text fill="#e1ed5e" style="font-size:6.75px; font-family:Arial;" text-anchor="middle"><textPath startOffset="21.407464694133747" xlink:href="#id18">June</textPath></text><path d="M 110.02825361518725 118.45085714620011 l 4.937852581057181 9.08509258721817 a31.340275404000593,31.340275404000593 0 0,0 -0.47489648332774154,0.25285562872122436 l -4.781167281942886 -9.168518683661963" fill="#ff5c08" stroke="none" /><path d="M 109.71004243097381 118.62028667847754 l 6.379614756284654 12.233752478911933 a34.79725277560315,34.79725277560315 0 0,0 -0.5320214583522695,0.27165394743764115 l -6.168666076218802 -12.341464378022412" fill="#ff8d0d" stroke="none" /><path d="M 109.06512990194946 118.94263497670748 l 4.925870660597083 10.293175153077216 a32.41111986164624,32.41111986164624 0 0,0 -0.5039331633757563,0.23586616553694786 l -4.74844878334982 -10.376217550184698" fill="#ff6b09" stroke="none" /><path d="M 107.407793817531 119.65005319985036 l 13.06981382243849 34.66923395131082 a58.050989408164625,58.050989408164625 0 0,0 -0.9354802177587751,0.3435212937122046 l -12.472744453025589 -34.88848609403175" fill="#52ff2b" stroke="none" /><path d="M 106.72888874123015 119.89276391827305 l 9.31934205762999 27.550978854819753 a50.0844730439772,50.0844730439772 0 0,0 -0.8167996768789125,0.2684982774931599 l -8.845019643103344 -27.70689805371493" fill="#abff21" stroke="none" /><path d="M 106.0420521117495 120.11202640906438 l 10.679385309113668 35.548200412206754 a58.11770228781584,58.11770228781584 0 0,0 -0.9579457500149542,0.2788440465784003 l -10.067579546717107 -35.72628815308767" fill="#51ff2b" stroke="none" /><path d="M 103.94208987418118 120.62667999033965 l 5.625220626889733 29.433531311868737 a50.96624555375503,50.96624555375503 0 0,0 -0.8607598599630846,0.1568591199048432 l -5.119126033375591 -29.525758605704944" fill="#a1ff22" stroke="none" /><path d="M 103.58742460773223 120.69131181640829 l 6.451326156021877 37.20953489472268 a58.764654059754825,58.764654059754825 0 0,0 -0.9954242606837334,0.16379668329214667 l -5.811624392285072 -37.3147975765105" fill="#4aff2c" stroke="none" /><path d="M 102.51750503828377 120.84855314841334 l 3.977932598430661 32.94298837063123 a54.18229091767477,54.18229091767477 0 0,0 -0.9243604573725692,0.10357651728000541 l -3.4118362394572923 -33.0064206484182" fill="#7cff26" stroke="none" /><path d="M 101.80034050326958 120.92268563240118 l 3.190342272318606 37.076613175261954 a58.21362019963324,58.21362019963324 0 0,0 -0.9963704774346102,0.07712537644074512 l -2.5534028001087603 -37.12591631869775" fill="#50ff2b" stroke="none" /><path d="M 101.44090949804482 120.95050786540614 l 1.3152598835881468 19.12359004750594 a40.16876638874929,40.16876638874929 0 0,0 -0.6883313072791921,0.04140830216849627 l -0.9867842241764896 -19.143350327499128" fill="#ffd714" stroke="none" /><path d="M 100.72087961077811 120.9876233191556 l 1.3462443498269159 39.19443536377904 a60.217548844042945,60.217548844042945 0 0,0 -1.0334096601279879,0.02661696708847007 l -0.6732213756281841 -39.21177004821755" fill="#3bff2e" stroke="none" /><line stroke="#e1ed5e" stroke-width="0.3" x1="101.45913802915013" x2="101.54496967792366" y1="184.9874750549273" y2="189.98673829345242" /><path d="M 101.47630435890484 185.9873277026323 a86.0,86.0 0 0,1 -42.54439059252881,-10.42667462771756" fill="none" id="id19" stroke="none" /><text fill="#e1ed5e" style="font-size:6.75px; font-family:Arial;" text-anchor="middle"><textPath startOffset="22.145653131862474" xlink:href="#id19">July</textPath></text><path d="M 100.0 121.0 l 4.500989565865702e-15 36.75336896319385 a57.75336896319385,57.75336896319385 0 0,0 -0.9914133760674605,-0.008510091459154299 l 0.630920451218604 -36.747953269929134" fill="#55ff2b" stroke="none" /><path d="M 99.63950707515114 120.99690560180557 l -0.07205335398784898 4.196746642422138 a25.197365133807445,25.197365133807445 0 0,0 -0.43241880546296435,-0.011137574533621932 l 0.14408547352155726 -4.194891350538469" fill="#ff0000" stroke="none" /><path d="M 99.27912038922189 120.98762331915562 l -1.2678825620547645 36.91301741300341 a57.93478551073304,57.93478551073304 0 0,0 -0.9936484431467534,-0.04267153955483621 l 1.9013567658023567 -36.88581330502275" fill="#53ff2b" stroke="none" /><path d="M 98.19965949673042 120.92268563240118 l -3.181739381944503 36.97663454871845 a58.11327212796112,58.11327212796112 0 0,0 -0.9931847018976508,-0.09405562387994933 l 3.816023647227169 -36.91656716933332" fill="#51ff2b" stroke="none" /><line stroke="#e1ed5e" stroke-width="0.3" x1="58.13341422392154" x2="55.67067388415222" y1="173.97424548756322" y2="178.32567169271397" /><path d="M 57.64086615596768 174.84453072859336 a86.0,86.0 0 0,1 -31.369924170532247,-30.572349798747897" fill="none" id="id20" stroke="none" /><text fill="#e1ed5e" style="font-size:6.75px; font-family:Arial;" text-anchor="middle"><textPath startOffset="22.145653131862474" xlink:href="#id20">August</textPath></text><line stroke="#e1ed5e" stroke-width="0.3" x1="26.387840678322732" x2="22.057713659400548" y1="142.50000000000003" y2="145.00000000000006" /><path d="M 25.521815274538298 143.00000000000003 a86.0,86.0 0 0,1 -11.493303480769221,-40.785679425670985" fill="none" id="id21" stroke="none" /><text fill="#e1ed5e" style="font-size:6.75px; font-family:Arial;" text-anchor="middle"><textPath startOffset="21.40746469413373" xlink:href="#id21">September</textPath></text><line stroke="#e1ed5e" stroke-width="0.3" x1="15.003131293944662" x2="10.003315487706104" y1="100.72959589197737" y2="100.7725132973878" /><path d="M 14.003168132696942 100.73817937305945 a86.0,86.0 0 0,1 10.791469493833604,-42.45332614584628" fill="none" id="id22" stroke="none" /><text fill="#e1ed5e" style="font-size:6.75px; font-family:Arial;" text-anchor="middle"><textPath startOffset="22.145653131862435" xlink:href="#id22">October</textPath></text><line stroke="#e1ed5e" stroke-width="0.3" x1="26.387840678322718" x2="22.05771365940052" y1="57.49999999999999" y2="54.99999999999999" /><path d="M 25.521815274538284 56.99999999999999 a86.0,86.0 0 0,1 29.574782752854787,-30.34633250058573" fill="none" id="id23" stroke="none" /><text fill="#e1ed5e" style="font-size:6.75px; font-family:Arial;" text-anchor="middle"><textPath startOffset="21.40746469413373" xlink:href="#id23">November</textPath></text><line stroke="#e1ed5e" stroke-width="0.3" x1="56.869717070023135" x2="54.33264160355391" y1="26.7553504044142" y2="22.446841604673864" /><path d="M 56.362301976729285 25.89364864446614 a86.0,86.0 0 0,1 42.16139366436587,-11.88097634709845" fill="none" id="id24" stroke="none" /><text fill="#e1ed5e" style="font-size:6.75px; font-family:Arial;" text-anchor="middle"><textPath startOffset="22.145653131862474" xlink:href="#id24">December</textPath></text></svg>