<?xml version="1.0" encoding="utf-8" ?>
<svg baseProfile="full" height="200mm" version="1.1" viewBox="0,0,200,200" width="200mm" xmlns="http://www.w3.org/2000/svg" xmlns:ev="http://www.w3.org/2001/xml-events" xmlns:xlink="http://www.w3.org/1999/xlink"><defs /><rect fill="#1a1a1a" height="200" width="200" x="0" y="0" /><text alignment-baseline="middle" fill="#e1ed5e" style="dominant-baseline: central; font-size:9.0px; font-family:Arial;" text-anchor="middle" x="100.0" y="100.0">2024</text><line stroke="#e1ed5e" stroke-width="0.3" x1="100.0" x2="100.0" y1="15.0" y2="10.0" /><path d="M 100.0 14.0 a86.0,86.0 0 0,1 42.35913384403234,11.155469271406648" fill="none" id="id97" stroke="none" /><text fill="#e1ed5e" style="font-size:6.75px; font-family:Arial;" text-anchor="middle"><textPath startOffset="22.145653131862478" xlink:href="#id97">January</textPath></text><path d="M 104.29559338865022 79.4440306129975 l 0.9162107187612502 -4.384399961286331 a25.479107623366577,25.479107623366577 0 0,0 0.4273666331407448,0.09314256858570964 l -0.991339768521129 4.368025934566902" fill="#ff2f04" stroke="none" /><path d="M 106.04205211174951 79.88797359093562 l 0.39963625815562354 -1.3302591287512542 a22.388991896469765,22.388991896469765 0 0,0 0.36713614667192995,0.11373971671832052 l -0.4224130376991837 1.323202824226287" fill="#ff0200" stroke="none" /><line stroke="#e1ed5e" stroke-width="0.3" x1="143.13028292997686" x2="145.6673583964461" y1="26.7553504044142" y2="22.446841604673864" /><path d="M 143.63769802327073 25.89364864446614 a86.0,86.0 0 0,1 29.32050498858742,28.57503671076993" fill="none" id="id98" stroke="none" /><text fill="#e1ed5e" style="font-size:6.75px; font-family:Arial;" text-anchor="middle"><textPath startOffset="20.669276256404974" xlink:href="#id98">February</textPath></text><line stroke="#e1ed5e" stroke-width="0.3" x1="172.87174338648825" x2="177.1583165268699" y1="56.24261187166439" y2="53.66864786411523" /><path d="M 173.72905801456457 55.72781907015455 a86.0,86.0 0 0,1 12.242430191666344,42.057860355516425" fill="none" id="id99" stroke="none" /><text fill="#e1ed5e" style="font-size:6.75px; font-family:Arial;" text-anchor="middle"><textPath startOffset="22.145653131862474" xlink:href="#id99">March</textPath></text><path d="M 119.71291397450082 92.76114493625339 l 6.249516196039568 -2.2949089120048796 a27.657556578727686,27.657556578727686 0 0,0 0.159834112542591,0.44708445954262166 l -6.287990478626102 2.1872894960813407" fill="#ff4d07" stroke="none" /><path d="M 120.05942366710727 93.78553927170692 l 3.32945253737471 -1.031472906879116 a24.48556889994396,24.48556889994396 0 0,0 0.12093968157652009,0.4025688664685288 l -3.346668538954857 0.9741664368198638" fill="#ff2003" stroke="none" /><line stroke="#e1ed5e" stroke-width="0.3" x1="184.99686870605535" x2="189.99668451229388" y1="99.2704041080226" y2="99.22748670261217" /><path d="M 185.99683186730306 99.26182062694052 a86.0,86.0 0 0,1 -10.086455211305974,41.156179273409016" fill="none" id="id100" stroke="none" /><text fill="#e1ed5e" style="font-size:6.75px; font-family:Arial;" text-anchor="middle"><textPath startOffset="21.40746469413373" xlink:href="#id100">April</textPath></text><path d="M 120.98066250479742 100.90099992219065 l 8.58946392016137 0.3688685389203091 a29.59738067290027,29.59738067290027 0 0,0 -0.026156206739894508,0.5074234230671666 l -8.581866123964902 -0.5162637553642063" fill="#ff6809" stroke="none" /><path d="M 120.9064616781168 101.97986365728391 l 11.326542270960914 1.0726353292215964 a32.37721874472662,32.37721874472662 0 0,0 -0.057149811284036706,0.5528725820435842 l -11.306460067195212 -1.2669124335481123" fill="#ff8e0d" stroke="none" /><path d="M 120.51834098615036 104.47187691870673 l 2.3407928795640824 0.5101649132676598 a23.395741961010682,23.395741961010682 0 0,0 -0.08889171877563092,0.39167331454826715 l -2.3316902992307873 -0.5502725617549439" fill="#ff1101" stroke="none" /><path d="M 120.26092885502905 105.52220625578681 l 8.531776835173675 2.3253737155529564 a29.842996035405122,29.842996035405122 0 0,0 -0.13895681682639296,0.49310872148950047 l -8.490601526272703 -2.4714903609454653" fill="#ff6c09" stroke="none" /><line stroke="#e1ed5e" stroke-width="0.3" x1="174.33088141563837" x2="178.70328620479359" y1="141.23008692659167" y2="143.65538615756765" /><path d="M 175.20536237346943 141.71514677278685 a86.0,86.0 0 0,1 -30.301960400862466,31.631185727798858" fill="none" id="id101" stroke="none" /><text fill="#e1ed5e" style="font-size:6.75px; font-family:Arial;" text-anchor="middle"><textPath startOffset="22.145653131862474" xlink:href="#id101">May</textPath></text><path d="M 118.36410011445183 110.18625677009912 l 7.067198946738349 3.920056124078678 a29.081592724748408,29.081592724748408 0 0,0 -0.24590097904534955,0.43448346819640093 l -6.998864602671622 -4.040796362374202" fill="#ff6109" stroke="none" /><path d="M 118.18653347947321 110.5 l 3.560205448101163 2.055485573831578 a25.110971147663157,25.110971147663157 0 0,0 -0.21873603748002518,0.37146161190647364 l -3.5243957004913726 -2.116298354031601" fill="#ff2904" stroke="none" /><path d="M 117.62189284568427 111.42229804090321 l 1.9547923441175663 1.2670727803259243 a23.32952496000011,23.32952496000011 0 0,0 -0.2207145933876635,0.3341900255599593 l -1.9327533118091762 -1.3004426842249446" fill="#ff1001" stroke="none" /><path d="M 117.423217284605 111.72311816256416 l 2.1257286660090657 1.430285114747056 a23.562115897253612,23.562115897253612 0 0,0 -0.22867624010510396,0.33364546838557846 l -2.1008626890886415 -1.4665653182026788" fill="#ff1302" stroke="none" /><path d="M 117.21940702142032 112.02048342749411 l 2.5033810971302923 1.747554428170699 a24.053008908746957,24.053008908746957 0 0,0 -0.2392528759981708,0.33653913254995416 l -2.4730131226021608 -1.790270787430157" fill="#ff1a02" stroke="none" /><path d="M 117.01052211995028 112.31430620078461 l 2.8496353595428943 2.0629162426965353 a24.517960361734957,24.517960361734957 0 0,0 -0.24973058120470776,0.33880749555101136 l -2.8138027587543584 -2.1115300475164243" fill="#ff2103" stroke="none" /><path d="M 116.57777611688842 112.89097897827486 l 2.4541351095232566 1.9083503048687906 a24.108790765215236,24.108790765215236 0 0,0 -0.25685456241987437,0.32452734884096274 l -2.4210141164618206 -1.9501975976244361" fill="#ff1b02" stroke="none" /><path d="M 116.1254893667686 113.45245675266167 l 2.4304112089590526 2.027535471083667 a24.165090635532618,24.165090635532618 0 0,0 -0.2684689056482418,0.3162556957981675 l -2.3952477398036964 -2.068957949331391" fill="#ff1c02" stroke="none" /><path d="M 115.89218393027572 113.72728997021213 l 2.789650048275252 2.409633269794799 a24.68625553736364,24.68625553736364 0 0,0 -0.27976455667541184,0.31832070982528815 l -2.7478744276412552 -2.45716625743138" fill="#ff2303" stroke="none" /><path d="M 115.6541949942343 113.99807769240083 l 1.5478243602341546 1.3840740872800201 a23.07639623608171,23.07639623608171 0 0,0 -0.26658984681701015,0.2930289413193032 l -1.5238368125752646 -1.410440604156995" fill="#ff0c01" stroke="none" /><path d="M 115.41159269507618 114.26474011684316 l 2.608955125786299 2.4148099149893496 a24.554989982249946,24.554989982249946 0 0,0 -0.2889820250846501,0.3068888962770866 l -2.567117266965389 -2.4592402712109336" fill="#ff2103" stroke="none" /><path d="M 114.65682725009322 115.03919595460226 l 2.6370360518364753 2.705831299380786 a24.778290904548513,24.778290904548513 0 0,0 -0.30716527979463154,0.2942573896835225 l -2.590198286176532 -2.7507008193698885" fill="#ff2503" stroke="none" /><path d="M 113.86319453409587 115.77377054828091 l 9.259605585908497 10.535731394411002 a35.02647252953377,35.02647252953377 0 0,0 -0.4550447836942596,0.3930568462213341 l -9.077381322451382 -10.693132373097054" fill="#ffb110" stroke="none" /><path d="M 112.45986205192187 116.90419585922612 l 6.388121527050684 8.666713725706703 a31.766616155864448,31.766616155864448 0 0,0 -0.44173595969873924,0.31978276911606157 l -6.238404556977977 -8.775097266195841" fill="#ff860c" stroke="none" /><path d="M 112.16784306229584 117.11559508785304 l 2.0236525142957174 2.84652069030434 a24.492541988143604,24.492541988143604 0 0,0 -0.3447674114918135,0.24067442920781695 l -1.9744900116301454 -2.8808399353172787" fill="#ff2003" stroke="none" /><path d="M 111.5731344415666 117.5232005979908 l 0.9555366544517829 1.4468042827319856 a22.73386646848381,22.73386646848381 0 0,0 -0.3274914876698547,0.21227602566769702 l -0.9305595345249186 -1.4629941501035773" fill="#ff0701" stroke="none" /><line stroke="#e1ed5e" stroke-width="0.3" x1="143.1302829299769" x2="145.66735839644613" y1="173.24464959558577" y2="177.55315839532614" /><path d="M 143.63769802327073 174.10635135553383 a86.0,86.0 0 0,1 -40.68552437913181,11.842963189579606" fill="none" id="id102" stroke="none" /><text fill="#e1ed5e" style="font-size:6.75px; font-family:Arial;" text-anchor="middle"><textPath startOffset="21.407464694133747" xlink:href="#id102">June</textPath></text><path d="M 107.74402155503746 119.51999308798841 l 0.48461008221612556 1.2215339779206615 a22.31415074896307,22.31415074896307 0 0,0 -0.3572684009858176,0.13819909250070297 l -0.46356941873677854 -1.229672958559405" fill="#ff0100" stroke="none" /><path d="M 106.0420521117495 120.11202640906438 l 0.4361209883456902 1.451704929538587 a22.51579969617435,22.51579969617435 0 0,0 -0.3711246965739053,0.10802899034338138 l -0.4111362793901781 -1.4589776141844868" fill="#ff0400" stroke="none" /><path d="M 103.2317021107853 120.74984581791261 l 6.252500282149543 40.14553705246418 a61.629520117878016,61.629520117878016 0 0,0 -1.0467477418806268,0.15383587131829043 l -5.56242743466123 -40.24695399708135" fill="#31ff40" stroke="none" /><path d="M 101.08105385017728 120.97215588758144 l 0.17157898306189723 3.328586433706987 a24.333005699678107,24.333005699678107 0 0,0 -0.41733913429415437,0.01792233812636368 l -0.1144140881669133 -3.331041340259181" fill="#ff1e03" stroke="none" /><path d="M 100.72087961077811 120.9876233191556 l 0.12786048351408508 3.72251846948784 a24.72471368818095,24.72471368818095 0 0,0 -0.4243075060301547,0.01092865623299545 l -0.0639396634131865 -3.7241648430708807" fill="#ff2403" stroke="none" /><line stroke="#e1ed5e" stroke-width="0.3" x1="101.45913802915013" x2="101.54496967792366" y1="184.9874750549273" y2="189.98673829345242" /><path d="M 101.47630435890484 185.9873277026323 a86.0,86.0 0 0,1 -42.54439059252881,-10.42667462771756" fill="none" id="id103" stroke="none" /><text fill="#e1ed5e" style="font-size:6.75px; font-family:Arial;" text-anchor="middle"><textPath startOffset="22.145653131862474" xlink:href="#id103">July</textPath></text><path d="M 98.55909050195518 120.95050786540614 l -0.3385284596833871 4.922129507012252 a25.933757229720193,25.933757229720193 0 0,0 -0.4438760204920627,-0.03435881125423749 l 0.4229734749506859 -4.91559292876296" fill="#ff3505" stroke="none" /><path d="M 97.48249496171623 120.84855314841334 l -0.1561715797914394 1.293324713174414 a22.302719607606424,22.302719607606424 0 0,0 -0.37970080437477827,-0.049159871001248044 l 0.1783502060570117 -1.290453245972769" fill="#ff0100" stroke="none" /><path d="M 95.35216902796893 120.47920084513623 l -0.8805391783892335 3.8798180903648807 a24.97848434193236,24.97848434193236 0 0,0 -0.4173403335188448,-0.09849118235163444 l 0.9470116656479661 -3.864130764367019" fill="#ff2703" stroke="none" /><path d="M 94.30408787586889 120.21278271476187 l -1.0264055209254817 3.642351096640824 a24.784207949437626,24.784207949437626 0 0,0 -0.40851454441666774,-0.11891263012493104 l 1.0887800777237562 -3.624194772213377" fill="#ff2503" stroke="none" /><line stroke="#e1ed5e" stroke-width="0.3" x1="58.13341422392154" x2="55.67067388415222" y1="173.97424548756322" y2="178.32567169271397" /><path d="M 57.64086615596768 174.84453072859336 a86.0,86.0 0 0,1 -31.369924170532247,-30.572349798747897" fill="none" id="id104" stroke="none" /><text fill="#e1ed5e" style="font-size:6.75px; font-family:Arial;" text-anchor="middle"><textPath startOffset="22.145653131862474" xlink:href="#id104">August</textPath></text><line stroke="#e1ed5e" stroke-width="0.3" x1="26.387840678322732" x2="22.057713659400548" y1="142.50000000000003" y2="145.00000000000006" /><path d="M 25.521815274538298 143.00000000000003 a86.0,86.0 0 0,1 -11.493303480769221,-40.785679425670985" fill="none" id="id105" stroke="none" /><text fill="#e1ed5e" style="font-size:6.75px; font-family:Arial;" text-anchor="middle"><textPath startOffset="21.40746469413373" xlink:href="#id105">September</textPath></text><path d="M 81.4637452351635 109.86951160357371 l -7.473486632695428 3.979210686101681 a29.466824678323217,29.466824678323217 0 0,0 -0.23389913841934842,-0.44853243867652215 l 7.540693840089725 -3.850332004320656" fill="#ff6609" stroke="none" /><path d="M 80.83023694016515 108.57439118712176 l -37.22883653909858 16.6519850522552 a61.783267110856286,61.783267110856286 0 0,0 -0.42473382995728853,-0.9718741228517193 l 37.50920425107284 -16.01044885962763" fill="#31ff42" stroke="none" /><path d="M 80.28708602549918 107.23885506374661 l -4.3369189093563305 1.59257669610195 a25.620082916929036,25.620082916929036 0 0,0 -0.14805947172659917,-0.4141486935676059 l 4.363618551126873 -1.5178930461534226" fill="#ff3104" stroke="none" /><path d="M 79.34024301695615 103.76489593502545 l -10.935194499059113 1.9927567082231343 a32.11528488300777,32.11528488300777 0 0,0 -0.09418217527661531,-0.5432177590563966 l 10.967791491827963 -1.8047459162461452" fill="#ff8a0c" stroke="none" /><path d="M 79.22317932658666 103.0534771498775 l -3.8945213820267943 0.5723605279485952 a24.936355340796545,24.936355340796545 0 0,0 -0.05860694634266768,-0.4240506687178897 l 3.9037728449246747 -0.5054215510306198" fill="#ff2703" stroke="none" /><path d="M 79.13060592940153 102.33845913500099 l -19.218023991694707 2.15341967323145 a40.3382952308215,40.3382952308215 0 0,0 -0.0712020997892749,-0.688815726123266 l 19.252158483965648 -1.8231994248252528" fill="#fff417" stroke="none" /><line stroke="#e1ed5e" stroke-width="0.3" x1="15.003131293944662" x2="10.003315487706104" y1="100.72959589197737" y2="100.7725132973878" /><path d="M 14.003168132696942 100.73817937305945 a86.0,86.0 0 0,1 10.791469493833604,-42.45332614584628" fill="none" id="id106" stroke="none" /><text fill="#e1ed5e" style="font-size:6.75px; font-family:Arial;" text-anchor="middle"><textPath startOffset="22.145653131862435" xlink:href="#id106">October</textPath></text><path d="M 79.0935383218832 98.0201363427161 l -62.7193850343504 -5.9395909718517155 a84.0,84.0 0 0,0 0.14827043007334506,-1.4343819108683489 l 62.608182211795395 7.015377405002977" fill="#4dd2ff" stroke="none" /><path d="M 79.13060592940154 97.66154086499901 l -4.74042472379295 -0.5311744778807702 a25.77009149680584,25.77009149680584 0 0,0 0.05303474244711475,-0.43920374728420947 l 4.730607895086167 0.6124719020884158" fill="#ff3304" stroke="none" /><path d="M 79.17382384314186 97.30363454192245 l -8.763103736144277 -1.1345592220926668 a29.836244208874113,29.836244208874113 0 0,0 0.07012296462408862,-0.5073748403041424 l 8.74233625496498 1.284822370596876" fill="#ff6b09" stroke="none" /><path d="M 79.407916724674 95.88100663000787 l -49.73428921289125 -9.948250732582913 a71.71949542483489,71.71949542483489 0 0,0 0.2518457033880322,-1.2051728598826477 l 49.55618579867885 10.80054004375097" fill="#3effb3" stroke="none" /><path d="M 80.05021161711548 93.44210830539832 l -3.4392658152191333 -1.1305549859618076 a24.62031820756381,24.62031820756381 0 0,0 0.13542884183337905,-0.40037130675220717 l 3.419351551813389 1.1894279671881764" fill="#ff2203" stroke="none" /><path d="M 80.83023694016515 91.42560881287825 l -11.24512907241612 -5.029803201824338 a33.318760006769374,33.318760006769374 0 0,0 0.23801579108484636,-0.5201074585316272 l 11.157128816476227 5.222099642570637" fill="#ff9a0e" stroke="none" /><path d="M 80.9802524753101 91.09779779509293 l -46.809365724714176 -21.909146702600406 a72.68295104564089,72.68295104564089 0 0,0 0.5386178464469779,-1.125504142526558 l 46.426368620307294 22.709463347192052" fill="#3fffbd" stroke="none" /><path d="M 81.46374523516351 90.13048839642627 l -3.221090750502895 -1.7150493959847533 a24.649221842207318,24.649221842207318 0 0,0 0.20207038897613638,-0.37178675605385714 l 3.191175011911408 1.77009098551323" fill="#ff2303" stroke="none" /><line stroke="#e1ed5e" stroke-width="0.3" x1="26.387840678322718" x2="22.05771365940052" y1="57.49999999999999" y2="54.99999999999999" /><path d="M 25.521815274538284 56.99999999999999 a86.0,86.0 0 0,1 29.574782752854787,-30.34633250058573" fill="none" id="id107" stroke="none" /><text fill="#e1ed5e" style="font-size:6.75px; font-family:Arial;" text-anchor="middle"><textPath startOffset="21.40746469413373" xlink:href="#id107">November</textPath></text><path d="M 81.99639281039701 89.18935116829357 l -42.84420441100361 -25.726713734828014 a70.97489020703946,70.97489020703946 0 0,0 0.6361784788679062,-1.0391497345619183 l 42.396257967680306 26.458400585514475" fill="#3dffab" stroke="none" /><path d="M 83.8745106332314 86.54754324733833 l -3.5961503432440654 -3.000036517853258 a25.68321645876715,25.68321645876715 0 0,0 0.28533495364066336,-0.3361238579241656 l 3.5441208260962873 3.0613271582269808" fill="#ff3104" stroke="none" /><path d="M 86.40962598614128 83.9905735841838 l -2.95169833143921 -3.4770932124955074 a25.560997725082018,25.560997725082018 0 0,0 0.3369495340348456,-0.2810952853173237 l 2.891574463242455 3.5272506817247127" fill="#ff3004" stroke="none" /><path d="M 87.25179093698888 83.31218511350988 l -2.107710511507998 -2.759060717980334 a24.472010893678686,24.472010893678686 0 0,0 0.3360205331683694,-0.25215607247524574 l 2.060036989428877 2.794835817719581" fill="#ff2003" stroke="none" /><path d="M 87.83215693770416 82.88440491214696 l -2.076866767088336 -2.921373201060609 a24.58438236633748,24.58438236633748 0 0,0 0.3460601956166895,-0.2415768929296555 l 2.0264114802978805 2.9565949097953914" fill="#ff2203" stroke="none" /><path d="M 88.12776184653039 82.6780497279521 l -0.7134300186591579 -1.0409157183381277 a22.26193816180009,22.26193816180009 0 0,0 0.3170775399214139,-0.2133439195801305 l 0.6954561906407546 1.0530093119753676" fill="#ff0000" stroke="none" /><path d="M 88.4268655584334 82.4767994020092 l -0.7102041506387228 -1.0753396031130344 a22.288699032981622,22.288699032981622 0 0,0 0.3210786521798034,-0.20811930318072497 l 0.6916398662018933 1.0873727479976658" fill="#ff0000" stroke="none" /><path d="M 89.03521579738668 82.08984904055464 l -4.315136616894656 -7.048451368590888 a29.26444618337223,29.26444618337223 0 0,0 0.4306991291794366,-0.25862245208113416 l 4.193504731157785 7.121487821207944" fill="#ff6409" stroke="none" /><line stroke="#e1ed5e" stroke-width="0.3" x1="56.869717070023135" x2="54.33264160355391" y1="26.7553504044142" y2="22.446841604673864" /><path d="M 56.362301976729285 25.89364864446614 a86.0,86.0 0 0,1 42.16139366436587,-11.88097634709845" fill="none" id="id108" stroke="none" /><text fill="#e1ed5e" style="font-size:6.75px; font-family:Arial;" text-anchor="middle"><textPath startOffset="22.145653131862474" xlink:href="#id108">December</textPath></text><path d="M 90.28995756902619 81.37971332152246 l -2.9812591214761315 -5.716957459180162 a27.447597113612197,27.447597113612197 0 0,0 0.4196512505977965,-0.2142769186887807 l 2.8826806491647528 5.767292329541777" fill="#ff4a06" stroke="none" /><path d="M 91.26138138417902 80.90454125486306 l -2.277041318273496 -4.975746220957924 a26.4720167781634,26.4720167781634 0 0,0 0.4148374248130838,-0.18555150359987077 l 2.1912904906047936 5.01410147546764" fill="#ff3d05" stroke="none" /><path d="M 91.5904679813234 80.7573450057729 l -2.396938275897149 -5.484663853245522 a26.98555349834573,26.98555349834573 0 0,0 0.4260696674839672,-0.1818638053803942 l 2.302433533242751 5.52500230828532" fill="#ff4406" stroke="none" /><path d="M 92.25597844496254 80.48000691201159 l -1.8421893491535644 -4.6435205670175135 a25.99559254287712,25.99559254287712 0 0,0 0.4162113936110311,-0.16099950828783413 l 1.7622056930490038 4.674459963443389" fill="#ff3605" stroke="none" /><path d="M 96.05791012581881 79.37332000966035 l -0.9571931608847711 -5.008439089079075 a26.09908627660484,26.09908627660484 0 0,0 0.4407828280174519,-0.0803253145133295 l 0.8710755993162806 5.0241325775237655" fill="#ff3705" stroke="none" /><path d="M 98.5590905019552 79.04949213459386 l -0.33643140400915056 -4.891638777749347 a25.903194471116223,25.903194471116223 0 0,0 0.443876706106752,-0.02670252039628504 l 0.2524103457699148 4.896693275970326" fill="#ff3505" stroke="none" /></svg>